<svg xmlns="http://www.w3.org/2000/svg" xml:space="preserve" width="580.26837" height="321.22632" viewBox="0 0 580.26837 321.22632"><g style="stroke-width:.0730731"><path d="m0 0-.343-.969H-.35L-.447 0h-.764l-.557-1.572h.639l.345.971h.007l.11-.971h.749L.64 0Zm-2.522-.989h-.381l.423.667h.006zM-2.793 0l-1.194-1.572h.726l.167.275h.543l-.028-.275h.727L-1.934 0Zm-.991-1.118c.203.574-.967.422-.857.733.026.07.116.138.262.138.132 0 .167-.077.134-.169l-.013-.038h.64c.118.337-.082.485-.677.485-.577 0-.921-.174-1.032-.491-.197-.557.929-.403.818-.714-.031-.085-.135-.152-.273-.152-.133 0-.207.049-.159.183l.012.038h-.661l-.018-.055c-.117-.326.159-.443.723-.443.603 0 .982.15 1.101.485m-2.446.332c-.151-.425-.213-.54-.422-.54s-.192.115-.04.54c.149.425.213.539.421.539.209 0 .19-.114.041-.539m.057.817c-.697 0-1.016-.229-1.224-.817s-.051-.817.646-.817 1.017.229 1.226.817c.208.588.049.817-.648.817m-2.031-.817c-.15-.425-.214-.54-.423-.54s-.189.115-.04.54c.151.425.213.539.422.539.211 0 .191-.114.041-.539m.058.817c-.698 0-1.017-.229-1.226-.817-.208-.588-.05-.817.647-.817s1.017.229 1.225.817.052.817-.646.817m-2.028-.817c-.15-.425-.207-.491-.472-.491h-.134l.347.982h.135c.266 0 .275-.066.124-.491m.153.786h-.991l-.555-1.572h.99c.788 0 .962.374 1.107.786.147.412.239.786-.551.786" style="fill:#272a3c;fill-opacity:1;fill-rule:nonzero;stroke:none;stroke-width:.0730731" transform="matrix(18.24662 0 0 -18.24662 415.44 .566)"/></g><g style="stroke-width:.0730731"><path d="M0 0c-.305.884-1.027 1.513-2.01 1.764a5.6 5.6 0 0 1-1.354 2.75l-.377.415-3.794-.553.299.716-3.686-.433-.968-.899-1.089-.159a2.45 2.45 0 0 1-1.061-.037h-.009l-.063-.019a5.064 5.064 0 0 1-2.034-1.184c-.582.495-1.383.706-2.286.597l-.005-.001a3.5 3.5 0 0 1-.507-.104l-.033-.01a10 10 0 0 1-.619-.248l.001.049c.004 1.512-1.151 3.295-3.699 3.637-1.213.163-2.459-.155-3.509-.895-1.999-1.338-2.927-2.985-3.116-3.99-.483-2.578 1.187-4.276 1.187-4.276l.74.607-.29-4.081-1.796-1.668s4.307.891 7.516-1.374l.558-.393.587.349c3.954 2.352 8.759 2.916 12.618 3.369 2.947.346 5.275.619 6.537 1.617.69.545 1.453 1.195 1.895 1.876C.156-1.781.291-.841 0 0" style="fill:#242843;fill-opacity:1;fill-rule:nonzero;stroke:none;stroke-width:.0730731" transform="matrix(18.24662 0 0 -18.24662 570.161 133.843)"/></g><g style="stroke-width:.0730731"><path d="m0 0-.772.545c-3.206 2.269-8.453 1.167-8.453 1.167s1.759 1.703 2.574 2.391l.213 2.988-.357-.293s-2.089 1.939-1.498 4.942c.117.619.453 1.34.948 2.03.598.833 1.384 1.58 2.336 2.218 1.133.796 2.479 1.138 3.791.962 2.497-.335 3.772-1.958 4.008-3.502l.12.044.059.019q.277.077.563.115l.006.001c.875.106 1.682-.063 2.315-.477A5.4 5.4 0 0 0 7.8 14.203l.116.034h.02q.119.027.238.044.452.066.875-.002l.901.131.973.904 4.5.528-.29-.695 3.302.481.521-.573a6 6 0 0 0 1.404-2.703c.987-.325 1.724-1.025 2.044-1.951.331-.96.181-2.029-.412-2.931-.472-.729-1.266-1.405-1.981-1.971-1.352-1.069-3.73-1.348-6.74-1.701C9.449 3.349 4.691 2.791.812.483Z" style="fill:#fff;fill-opacity:1;fill-rule:nonzero;stroke:none;stroke-width:.0730731" transform="matrix(18.24662 0 0 -18.24662 168.325 321.226)"/></g><g style="stroke-width:.0730731"><path d="M0 0c-.305.884-1.027 1.513-2.01 1.764a5.6 5.6 0 0 1-1.354 2.75l-.377.415-3.794-.553.299.716-3.686-.433-.968-.899-1.089-.159a2.45 2.45 0 0 1-1.061-.037h-.009l-.063-.019a5.064 5.064 0 0 1-2.034-1.184c-.582.495-1.383.706-2.286.597l-.005-.001a3.5 3.5 0 0 1-.507-.104l-.033-.01a10 10 0 0 1-.619-.248l.001.049c.004 1.512-1.151 3.295-3.699 3.637-1.213.163-2.459-.155-3.509-.895-1.999-1.338-2.927-2.985-3.116-3.99-.483-2.578 1.187-4.276 1.187-4.276l.74.607-.29-4.081-1.796-1.633s4.484.688 7.516-1.409l.558-.393.587.349c3.954 2.352 8.759 2.916 12.618 3.369 2.947.346 5.275.619 6.537 1.617.69.545 1.453 1.195 1.895 1.876C.156-1.781.291-.841 0 0" style="fill:#1b2142;fill-opacity:1;fill-rule:nonzero;stroke:none;stroke-width:.0730731" transform="matrix(18.24662 0 0 -18.24662 570.161 133.843)"/></g><g style="fill:#fff;stroke-width:.0730731"><path d="M0 0q.534.479.948 1.358c.102-.376.261-.639.426-.822.127-.142.306-.291.55-.393C1.3.101.655.053 0 0m-11.592-1.814q.297.157.538.352.534.43.802 1.035a2.64 2.64 0 0 1 1.053-.817 45 45 0 0 1-2.393-.57M9.674 1.963c-.285.825-1.009 1.372-1.987 1.524-.097 1.005-.556 2.029-1.282 2.827l-.209.229-2.021-.294-.091-.386q-.076-.323-.162-.641l-.765.879-1.328-.193.309.739-2.734-.321s-.176-.278-.263-.793l-2.017-.293a2 2 0 0 1-.728.024c-.901-.132-1.713-.822-2.214-1.833-.094.213-.228.41-.398.58-.484.485-1.208.697-2.037.596h-.006a2.9 2.9 0 0 1-2.007-1.177c.187.359.314.798.32 1.332.003 1.313-1.026 2.865-3.291 3.169-1.097.147-2.227-.143-3.181-.816-.93-.656-1.569-1.607-1.759-2.61-.278-1.486.1-2.438.465-2.975l.358-.525 1.189.974-.34-4.765 3.048.417c-2.67-.876-3.977-1.832-3.977-1.832s3.562.406 6.423-1.614l.31-.218.325.193c4.039 2.403 8.898 2.974 12.803 3.432 2.873.337 5.142.603 6.3 1.519.908.718 1.289 1.864.947 2.852" style="fill:#fff;fill-opacity:1;fill-rule:nonzero;stroke:none;stroke-width:.0730731" transform="matrix(18.24662 0 0 -18.24662 385.538 172.456)"/></g><g style="fill:#e6232a;stroke-width:.0730731"><path d="m0 0-.49-6.903 2.386.327c1.894.269 2.664 1.098 2.86 2.103.337 1.807-1.385 2.264-1.385 2.264s1.464.542 1.482 2.181c.002 1.099-.894 2.337-2.787 2.591C.073 2.83-1.891 1.374-2.222-.393c-.24-1.278.059-2.08.373-2.54l1.189.975C-1.346-.001.225 1.315 1.76 1.13 2.83.996 3.219.308 3.237-.303c.023-.693-.402-1.385-1.2-1.485l-.059-1.009c.641.028 1.297-.519 1.13-1.41-.121-.644-.535-1.06-1.285-1.134-.213-.021-.611-.079-.611-.079L1.615.314z" style="fill:#e6232a;fill-opacity:1;fill-rule:nonzero;stroke:none;stroke-width:.0730731" transform="matrix(18.24662 0 0 -18.24662 104.872 85.037)"/></g><g style="fill:#e6232a;stroke-width:.0730731"><path d="M0 0c.039.956-.345 2.09-1.147 2.974l-1.325-.193S-3.313-.8-3.98-.873c-.749-.106-.46 1.665.035 3.116l-.25.287-1.815-.264s-.091.27.102.73c0 0-1.399-.175-1.415-.173-.168-.507-.202-1.226.299-1.706-.165-.841-.612-2.665-1.253-2.767-.776-.11-.205 1.983.285 3.645l-1.409-.206-.103-.488c-.229.312-.601.516-1.139.438-.993-.145-1.757-1.152-2.069-2.291-.396-.957-1.023-1.849-1.995-1.974-1.725-.176-1.476 2.248-.398 2.434.667.075.62-.938-.227-.941l.051-.77c1.233-.268 1.822.623 1.909 1.331.105.85-.565 1.719-1.933 1.553-2.982-.391-2.862-5.371.686-4.904.862.113 1.486.662 1.929 1.297.237-.559.739-.902 1.575-.781.598.087.821.53.821.53l-.157.98c-.496-.313-1.142-.046-.865 1.149.093.431.367.992.837 1.059.743.073.454-1.104.454-1.104-.245-1.34.215-2.441 1.699-2.225 1.742.254 2.32 3.837 2.32 3.837l.549.079c-.514-1.986-.249-3.534 1.166-3.328 1.662.242 2.567 3.937 2.567 3.937.371-.592.482-1.3.511-1.748-.433-.105-.835-.265-1.142-.473 0 0-.159-1.551 1.127-1.418.574.084.825.573.971.984 1.287.305 2.416-1.918-2.059-2.168-7.575-.405-14.657-1.116-20.282-3.472 0 0 2.519.011 4.801-1.6 7.068 4.205 16.552 2.939 19.04 4.907C2.656-2.263 2.348-.01 0 0" style="fill:#e6232a;fill-opacity:1;fill-rule:nonzero;stroke:none;stroke-width:.0730731" transform="matrix(18.24662 0 0 -18.24662 515.493 118.66)"/></g></svg>