<svg xmlns="http://www.w3.org/2000/svg" width="93.534309mm" height="26.324644mm" viewBox="0 0 93.534309 26.324644"><path d="m355.26 45.769-.062.005-2.99 3.317-.512-2.997-7.473.688-.402.832c-.62-.375-1.378-.572-2.207-.572-.165 0-.333.01-.498.023l-4.705.432c-1.516.14-3.227.92-4.608 2.092-.772-.976-2.103-1.476-3.605-1.337l-4.706.431v-.001L297.29 51.09l2.915-3.23-13.129 1.208-.762 1.572-7.522.69-3.363 6.914 1.56-.142-5.5 11.271 8.524-.78 1.728-3.542 2.082 6.146 8.005-.735-.969-2.865 2.96-.271 3.703-7.588-.362 7.279 6.847-.628.073-.007 1.074-1.586-.073 1.492 6.844-.628.073-.006 1.651-2.438c.05.102.104.2.163.295.741 1.185 2.103 1.78 3.807 1.625l4.672-.426c1.532-.142 3.255-.925 4.637-2.103.689.886 1.778 1.37 3.094 1.37.166 0 .339-.008.515-.025l4.672-.428c.931-.086 1.91-.392 2.855-.886l-.318.654 8.523-.783.47-.959.505 2.963 2.058-2.28 7.59-.7 8.132-16.661zm0 0" style="fill:#570514;fill-opacity:1;fill-rule:nonzero;stroke:none;stroke-width:.352777" transform="translate(-271.488 -44.873)"/><path d="m285.564 54.42.992-.092-2.074 2.298zm2.931 9.357-1.2-3.544 6.383-7.075zm36.508-10.021-2.51 5.145-1.68.155 2.51-5.146zm12.918-1.185-2.512 5.147-1.678.153 2.509-5.146zm17.868-6.032-.06.007-4.227 4.684-.722-4.232-5.835.537-.825 1.704a1.916 1.916 0 0 0-.135-.251c-.455-.73-1.293-1.132-2.357-1.132-.132 0-.273.007-.412.02l-4.705.432c-1.802.164-3.832 1.365-5.097 2.971a2.342 2.342 0 0 0-.347-1.106c-.455-.73-1.293-1.13-2.36-1.13-.132 0-.27.007-.409.018l-4.706.434c-.91.083-1.926.448-2.874 1.024l.55-.812-6.131.564-2.993 4.42.208-4.167-5.135.474-2.992 4.417.207-4.163-9.854.908 2.914-3.229-9.694.892-.765 1.57-7.523.69-2.234 4.597 1.565-.142-5.5 11.27 5.952-.546 2.632-5.395 2.662 7.864 5.746-.529-.971-2.865 3.736-.341 4.757-9.745.934-.088-.464 9.35 5.133-.471 2.99-4.415-.204 4.157 5.132-.47 4.24-6.261-.788 1.617c-.547 1.122-.576 2.176-.08 2.969.456.729 1.293 1.132 2.354 1.132.135 0 .274-.008.415-.02l4.673-.429c1.827-.167 3.872-1.374 5.13-2.99.023.413.14.79.347 1.122.513.82 1.508 1.227 2.769 1.112l4.671-.429c2.25-.207 4.811-2.006 5.83-4.097l2.935-6.014.48-.044-4.755 9.743 5.952-.544 1.7-3.478.699 4.092 3.836-4.25-1.564 3.207 5.952-.547 6.999-14.341zm0 0" style="fill:#eb008a;fill-opacity:1;fill-rule:nonzero;stroke:none;stroke-width:.352777" transform="translate(-271.488 -44.873)"/><path d="m295.686 49.835-7.409.682-1.482 3.051 1.566-.142-6.194 6.864 2.931 8.655 4.24-.39-2.878-8.495zM356.082 47.251l-5.049 5.597-.862-5.056-4.746.436-1.475 3.053 1.636-.155-4.756 9.749 4.24-.39 2.522-5.153.826 4.845 6.315-6.997-3.28 6.72 4.24-.39 6.245-12.796zm0 0" style="fill:#fff;fill-opacity:1;fill-rule:nonzero;stroke:none;stroke-width:.352777" transform="translate(-271.488 -44.873)"/><path d="M294.625 52.893 288.38 65.69l4.239-.389 6.246-12.798zM279.99 52.779l-1.483 3.05 1.567-.141-5.5 11.268 4.239-.387 6.99-14.324zM322.972 59.596l-3.392.311 3.264-6.691 3.391-.31zm5.394-9.802-4.706.431c-1.877.173-4.054 1.657-5.056 3.38l-3.116 6.388c-.904 1.853-.025 3.21 1.961 3.026l4.673-.429c1.989-.183 4.333-1.832 5.237-3.686l2.968-6.084c.905-1.855.027-3.208-1.961-3.026M335.889 58.41l-3.393.312 3.266-6.69 3.391-.312zm5.395-9.803-4.706.433c-1.876.172-4.055 1.655-5.056 3.38l-3.116 6.39c-.904 1.851-.025 3.204 1.962 3.024l4.672-.429c1.987-.183 4.332-1.833 5.236-3.686l2.969-6.085c.905-1.854.027-3.208-1.961-3.027M315.55 50.97l-4.27 6.307.296-5.942-3.945.362-4.27 6.306.295-5.94-4.25.393-1.484 3.051 1.644-.153-.464 9.349 3.942-.361 4.267-6.302-.29 5.938 3.943-.364 8.825-13.033zm0 0" style="fill:#fff;fill-opacity:1;fill-rule:nonzero;stroke:none;stroke-width:.352777" transform="translate(-271.488 -44.873)"/><path d="m280.074 55.688 2.865-1.721-3.69.337-.742 1.526zM288.361 53.426l3.761-1.797-4.586.414-.741 1.525zm0 0" style="fill:#d1d1d1;fill-opacity:1;fill-rule:nonzero;stroke:none;stroke-width:.352777" transform="translate(-271.488 -44.873)"/><path d="m295.686 49.835-3.564 1.794-7.782 8.626 2.88 8.497-2.122.193 4.24-.39-2.878-8.495zM347.067 52.266l-3.373 6.89-2.864 1.719 4.24-.39 2.522-5.153zM349.223 54.855l1.81-2.007-.862-5.056-1.917 1.394zM359.073 48.435l-4.755 9.746-2.864 1.72 4.238-.39 6.246-12.797zM357.022 48.488l-7.33 8.118-1.274 3.571 6.315-6.997zm0 0" style="fill:#d1d1d1;fill-opacity:1;fill-rule:nonzero;stroke:none;stroke-width:.352777" transform="translate(-271.488 -44.873)"/><path d="m295.992 54.244-4.75 9.731-2.861 1.715 4.239-.389 6.246-12.798zM282.939 53.967l-5.5 11.266-2.865 1.723 4.239-.387 6.99-14.324zM309.002 60.64l2.278-3.363.296-5.942-2.195 1.663zM307.465 54.875l-5.491 8.11-2.872 1.718 3.942-.361 4.267-6.302zM316.615 52.332l-6.722 9.928-2.873 1.717 3.944-.363 8.825-13.033zM299.566 55.354l1.898-1.63-2.799.255-.743 1.528zM345.586 51.126l2.668-1.94-3.465.319-.847 1.776zm0 0" style="fill:#d1d1d1;fill-opacity:1;fill-rule:nonzero;stroke:none;stroke-width:.352777" transform="translate(-271.488 -44.873)"/><path d="m301.082 61.367 2.28-3.364.294-5.94-2.192 1.661zM323.587 51.693l-2.864 1.717-4.011 8.223 2.868-1.724 3.264-6.693 3.391-.31 2.864-1.719zm0 0" style="fill:#d1d1d1;fill-opacity:1;fill-rule:nonzero;stroke:none;stroke-width:.352777" transform="translate(-271.488 -44.873)"/><path d="m330.353 50.435-1.254.752-4.014 8.226-2.847 1.714-5.526.506-1.245.75c.378.473 1.06.721 1.982.636l4.673-.429c.097-.008.197-.024.296-.04 1.919-.308 4.08-1.883 4.94-3.646l2.969-6.084c.484-.992.457-1.838.026-2.385M336.506 50.508l-2.864 1.717-4.011 8.223 2.865-1.726 3.266-6.69 3.391-.312 2.865-1.72zm0 0" style="fill:#d1d1d1;fill-opacity:1;fill-rule:nonzero;stroke:none;stroke-width:.352777" transform="translate(-271.488 -44.873)"/><path d="m343.272 49.25-1.254.752-4.015 8.226-2.846 1.714-5.526.506-1.244.75c.377.473 1.06.719 1.981.636l4.672-.429c.098-.008.197-.025.296-.04 1.918-.307 4.08-1.883 4.94-3.646l2.969-6.085c.485-.991.457-1.839.027-2.384" style="fill:#d1d1d1;fill-opacity:1;fill-rule:nonzero;stroke:none;stroke-width:.352777" transform="translate(-271.488 -44.873)"/></svg>