<svg xmlns="http://www.w3.org/2000/svg" id="_레이어_1" version="1.1" viewBox="0 0 356.6 140.3"><defs><clipPath id="clippath"><path d="M-3226.4-585H1068v5967.5h-4294.4z" style="fill:none;stroke-width:0"/></clipPath><style>.cls-3,.cls-4,.cls-5{stroke-width:0}.cls-3{fill:#c00e3b}.cls-4{fill:#656263}.cls-5{fill:#231f20}</style></defs><g style="clip-path:url(#clippath)"><path d="M178.7 140.3h25.2V60.5h-25.2zM262 95.9l-26.6-35.4h-28.8l8.6 11.5v68.3h24.6v-35.4l26.6 35.4h20.2V60.5H262zM144.4 107.9l-5.2 7-5.2-7V60.5h-24.3v47.4l-5.2 7-5.3-7V60.5H74.9v51.8l21 28h17l8.9-11.8 8.9 11.8h17l21-28V60.5h-24.3zM0 81.4h22.4v58.8h24.8V81.4h22.4v-21H0zM356.6 81.1V60.5h-60.5v32.4l35.7 24.4v1.9h-37v21.1h61.8V107l-36-24.5v-1.3h36Z" class="cls-5"/><path d="M289.4 34.1h-19.9V.6h-9.6v41.6h29.6v-8.1ZM311 42.9c6.5 0 12.8-1.7 16.2-4.1V18.6h-16.7v7.8h7.9v7.3c-2.2.7-4.6 1.1-6.9 1.1-8.6 0-11.5-4.4-11.5-13.3S302.7 8 311.4 8s7.5 1.5 9.8 4.4l6-5.5c-3.6-5.2-10-6.8-16-6.8-13.5 0-20.5 7.3-20.5 21.4S297.1 43 311.2 43" class="cls-4"/><path d="M181.2 137.8h20.3V62.9h-20.3zM264.5 103.3l-30.3-40.4h-22.7l6.1 8.2v66.7h19.7V97.4l30.3 40.4h16.5V62.9h-19.7v40.4ZM146.9 62.9v45.8l-7.7 10.3-7.7-10.3V62.9h-19.3v45.8l-7.7 10.3-7.7-10.3V62.9H77.5v48.5l19.8 26.4h14.5l10.1-13.5 10.1 13.5h14.5l19.8-26.4V62.9H147ZM2.5 79h22.4v58.8h19.9V79h22.3V63H2.5zM354.2 78.6V62.9h-55.6v28.7l35.7 24.4v5.6h-37v16.2h56.9v-29.5l-36-24.5v-5.1h36Z" class="cls-3"/></g></svg>