<svg xmlns="http://www.w3.org/2000/svg" xml:space="preserve" width="962.66156" height="231.49001" viewBox="0 0 962.66156 231.49001"><path d="m867.036 159.389-6.628 24.762h-87.031l-5.462 20.32h95.625a18.572 18.572 0 0 0 17.953-13.838l12.818-47.85h-87.032l15.112-56.37a25.308 25.308 0 0 1 24.398-18.753h95.553l20.32-20.32H844.386a44.79 44.79 0 0 0-43.224 33.138l-21.158 78.947z" style="fill:#d00e31;fill-opacity:1;fill-rule:nonzero;stroke:none;stroke-width:36.4149"/><path d="M760.705 231.454h105.2a44.79 44.79 0 0 0 43.26-33.174l21.123-78.911H843.22l6.664-24.762h65.437l20.32-20.283h-88.853a18.572 18.572 0 0 0-17.916 13.764l-12.854 47.959h86.995l-15.112 56.37a25.272 25.272 0 0 1-24.398 18.717h-97.374zM289.278 47.304h-22.796l-49.342 184.15h22.796zm-52.583 0-49.342 184.15h22.832l49.342-184.15zm116.6 0A44.79 44.79 0 0 0 310.07 80.44c-7.283 27.02-28.913 107.934-28.913 107.934a34.23 34.23 0 0 0 33.028 43.079h24.653l20.32-20.32h-37.872a17.843 17.843 0 0 1-17.37-22.613L331.3 86.34a25.272 25.272 0 0 1 24.398-18.718h85.793l-43.916 163.83h22.832l49.342-184.15zm158.44 39.036a25.272 25.272 0 0 1 24.399-18.717h85.794L578.01 231.417h22.832l49.343-184.15H533.73a44.79 44.79 0 0 0-43.224 33.138L450.05 231.49h22.795l38.89-145.15" style="fill:#d00e31;fill-opacity:1;fill-rule:nonzero;stroke:none;stroke-width:36.4149"/><path d="m539.266 94.607-36.67 136.81H479.8l38.417-143.365a18.572 18.572 0 0 1 17.916-13.765h77.054l-42.095 157.13h-22.797l36.67-136.81zM745.083 0h-22.797L704.15 67.623h78.693l20.32-20.32h-70.755zm-73.74 190.268a11.216 11.216 0 0 0 10.888 14.202h56.078l5.463-20.32H695.85l23.96-89.507h36.124l20.32-20.32h-73.85z" style="fill:#d00e31;fill-opacity:1;fill-rule:nonzero;stroke:none;stroke-width:36.4149"/><path d="M715.368 0h-22.796l-50.543 188.411a34.23 34.23 0 0 0 33.1 43.043h55.97l5.426-20.32h-54.33a17.807 17.807 0 0 1-14.24-7.028 17.843 17.843 0 0 1-3.094-15.586zm-359.67 74.324a18.644 18.644 0 0 0-17.952 13.764c-6.81 25.564-27.384 102.18-27.384 102.18a11.252 11.252 0 0 0 10.888 14.202h44.572l12.636-12.636-10.633 39.583h22.832l42.096-157.093zm24.763 109.827h-45.592l23.96-89.508h45.666zM70.46 40.75 30.406 190.231a11.143 11.143 0 0 0 1.966 9.796 11.143 11.143 0 0 0 8.922 4.37h93.914l23.16-86.377h-56.735l-16.75 16.751h46.137l-13.218 49.342h-63l36.78-136.81h80.84l20.357-20.32H88.414A18.572 18.572 0 0 0 70.46 40.75" style="fill:#d00e31;fill-opacity:1;fill-rule:nonzero;stroke:none;stroke-width:36.4149"/><path d="M140.34 211.134H41.294a17.843 17.843 0 0 1-17.333-22.613L64.016 39.038A25.272 25.272 0 0 1 88.414 20.32h110.992L219.726 0H86.01a44.79 44.79 0 0 0-43.26 33.138L1.164 188.375a34.23 34.23 0 0 0 33.065 43.079h123.446L194.38 94.607h-69.297l-16.751 16.75h58.773z" style="fill:#d00e31;fill-opacity:1;fill-rule:nonzero;stroke:none;stroke-width:36.4149"/></svg>