<svg xmlns="http://www.w3.org/2000/svg" xml:space="preserve" width="1333.3333" height="474.388" viewBox="0 0 1333.3333 474.388"><defs><clipPath id="a" clipPathUnits="userSpaceOnUse"><path d="M0 355.791h1000V0H0Z"/></clipPath></defs><g clip-path="url(#a)" transform="matrix(1.33333 0 0 -1.33333 0 474.388)"><path d="M0 0c-8.414 10.606-20.442 16.987-34.875 18.458-2.148.225-136.094-.077-136.094-.077-63.793-.204-86.698-47.46-94.658-75.633-6.846-24.153-6.464-41.714-6.716-46.644-.047-.811.155-1.839.687-2.064.729-.326 1.791-.037 3.227 1.322 1.567 1.463 28.078 28.192 31.948 31.695 3.863 3.474 20.75 19.939 50.412 20.008l100.506.3c-.408-2.083-24.749-113.119-24.749-113.119-3.741-14.578-14.459-22.751-33.001-24.163l29.569 134.626c.098.228.054.52-.331.496-.398-.048-22.907-1.548-22.907-1.548-35.609-3.953-68.507-33.386-76.439-68.457l-14.342-65.282c-21.185.022-34.716 3.353-43.249 4.898-2.897.49-5.594 1.137-7.911 1.662-.943.207-1.775-.623-1.327-1.482 2.983-5.859 9.914-21.717 19.692-34.419 13.203-17.191 33.983-27.187 60.777-29.938l67.291-.787c96.685.297 103.716 33.067 111.197 67.76C-20.651-179.37 9.13-45.986 9.13-45.986 13.067-28.743 9.811-12.392 0 0" style="fill:#c7a079;fill-opacity:1;fill-rule:nonzero;stroke:none" transform="translate(280.375 250.148)"/><path d="M0 0c-8.241 10.449-20.72 16.221-35.784 16.147l-129.519-.424c-45.202-.125-72.777-28.531-82.656-52.845-6.175-15.193-8.011-24.678-9.199-31.003 0 0-2.395-14.539-2.65-19.11-.063-.647-.143-.935.223-1.145.204-.117.514-.074 1.018.342 2.655 2.428 9.495 10.125 11.13 11.803 5.515 5.571 15.723 16.147 22.221 20.687 8.077 5.652 24.743 15.151 45.774 15.2l104.578.311c1.87.024 3.023-.445 3.132-.687 1.418-1.783.189-4.797.189-4.797l-25.222-116.393c-4.833-19.057-20.693-29.138-48.779-29.856 0 0 28.745 132.874 28.849 133.408.113.635-.204 1.033-.925.956-.721-.043-12.877-1.299-12.877-1.299-32.318-3.574-62.107-30.234-69.337-61.972l-12.474-56.907-3.384-14.361-3.805-.029c-7.675-.013-17.353.408-36.444 3.728-3.326.579-4.956 1.127-5.383.671-.331-.466-.235-1.089.552-2.785.331-.732 6.442-15.837 21.64-29.612 9.464-8.515 25.237-14.347 45.698-16.444 11.231-1.145 23.252-1.293 34.615-1.245l17.388.042c80.871.268 106.333 8.393 118.901 61.938L7.818-39.831C11.237-24.81 8.465-10.667 0 0" style="fill:#071d3d;fill-opacity:1;fill-rule:nonzero;stroke:none" transform="translate(274.243 244.885)"/><path d="m0 0-129.551-.411c-66.07-.201-80.422-61.11-81.091-63.56-.733-2.438-2.803-12.314-2.954-13.028-.201-.704.056-1.041.702-.357.66.708 9.135 9.747 9.135 9.747.193.255 24.132 25.488 60.787 25.592l104.628.32c3.977.011 6.914-1.057 8.639-3.318 3.434-4.47 1.389-12.376-.686-20.778-.525-2.028-23.143-106.428-23.143-106.428-8.515-34.058-47.142-34.173-59.876-34.204l-3.638-.027s28.185 132.12 28.27 132.703c.101.583-.442.853-1.017.79-.536-.056-4.171-.456-4.171-.456-29.713-3.297-57.096-27.741-63.679-56.879l-17.602-76.306c-7.216.047-15.113.226-21.844.92-4.066.418-16.706 2.599-17.655 2.764-.915.196-1.209-.268-.718-.986.49-.731 4.02-6.215 4.02-6.215 11.605-17.021 30.348-27.163 53.55-28.379 23.172-1.24 40.281-.615 56.945-.867 48.429-.655 94.213-.448 107.532 55.917l30.322 135.97c2.907 12.853.562 24.903-6.538 33.884C23.503-4.892 12.495.047 0 0" style="fill:#1d467d;fill-opacity:1;fill-rule:nonzero;stroke:none" transform="translate(238.078 253.514)"/><path d="M0 0c21.015.066 38.778 13.672 48.756 37.366L59.097 61.9s.275 1.018-.854 1.002c-1.158-.01-125.472-.381-125.472-.381-39.055-.106-76.575-30.651-85.388-69.52 0 0-6.997-31.676-7.195-32.468-.178-.795.187-1.021.551-1.135.318-.082 99.234-26.204 99.234-26.204l-.795-2.732c-.909-3.071-54.319-5.43-79.943-10.545-63.585-12.73-80.461-57.244-80.909-58.487-.456-1.227-.405-1.746.308-1.738.728 0 172.493.517 172.493.517 62.062.201 67.389 28.907 70.248 44.325.275 1.457 5.748 26.453 6.851 33.499 3.135 18.72-8.913 37.048-28.586 43.576C-8.345-15.752-40.923-6.593-61.808-.766c.54.332 1.047.469 1.338.519z" style="fill:#c7a079;fill-opacity:1;fill-rule:nonzero;stroke:none" transform="translate(940.874 147.98)"/><path d="m0 0 61.158.23c15.333.051 30.548 11.301 37.697 24.973 2.746 5.276 8.215 19.109 9.456 22.281.169.448-.157.671-.686.689-.555-.063-114.664-.649-114.664-.649-34.864-.106-69.633-28.438-77.487-63.175l-5.662-25.884c-.026-.251.058-.413.231-.442.122-.04 99.585-27.566 99.585-27.566s-1.193-4.168-2.841-10.581c-1.683-6.396-45.934-7.153-64.135-10.4-27.492-4.892-55.029-8.8-82.96-35.951-4.252-4.149-7.821-10.276-9.61-12.558-.389-.507-.228-1.169.525-1.196.856-.004 164.299.689 164.299.689 33.564.093 53.118 10.823 58.09 31.881l.594 2.557c2.123 8.81 6.023 25.24 7.797 36.487 2.459 14.925-7.816 30.247-23.926 35.603-9.72 3.199-56.287 16.198-70.282 20.077C-10.213-5.165-5.814-.794 0 0" style="fill:#071d3d;fill-opacity:1;fill-rule:nonzero;stroke:none" transform="translate(880.195 155.077)"/><path d="m0 0 61.49.244c19.672.055 29.871 17.292 34.235 27.534 0 0 1.87 4.551 1.949 4.99.154.451-.148.628-.776.628-.621 0-104.315-.328-104.315-.328-31.544-.088-62.923-25.756-70.089-57.265 0 0-4.373-19.728-4.431-19.971-.027-.228.067-.395.268-.467.225-.05 99.467-28.321 99.467-28.321a33.382 33.382 0 0 0-.424-1.956l-2.194-9.684c-3.667-13.587-13.696-14.44-55.457-17.901-9.84-.813-67.869-7.834-90.175-30.897-2.403-2.534-4.11-4.505-5.04-5.729-.639-.819-.453-1.249.45-1.278 10.648.109 124.938.702 140.385.75 36.086.122 54.401 4.365 60.822 28.409 3.708 13.866 6.41 26.069 8.051 36.221 1.902 11.618-6.424 23.588-19.377 27.911C43.677-43.429-19.117-26-19.719-25.849c-.561.143-1.738.941-1.515 2.189C-17.37-5.74-7.626-.88 0 0" style="fill:#1d467d;fill-opacity:1;fill-rule:nonzero;stroke:none" transform="translate(880.205 161.996)"/><path d="m0 0 92.806.292a64.313 64.313 0 0 1 2.497 5.247l-99.357-.321c-29.758-.072-59.463-24.354-66.175-54.088l-3.663-16.653 4.921-1.402 2.813 12.85C-58.966-22.667-29.746-.09 0 0" style="fill:#fff;fill-opacity:1;fill-rule:nonzero;stroke:none" transform="translate(876.885 185.818)"/><path d="M0 0c6.524-1.786 64.002-17.761 74.377-21.206 3.985-1.307 7.454-3.48 10.176-6.135-2.889 5.062-7.865 9.418-14.257 11.382C59.366-12.665 2.436 3.416-4.107 5.25a1.468 1.468 0 0 0-.337.116C-4.272 2.724-2.282.641 0 0" style="fill:#fff;fill-opacity:1;fill-rule:nonzero;stroke:none" transform="translate(863.5 127.031)"/><path d="m0 0 2.043 8.973c.697 3.005 1.826 6.381-1.073 7.264l-2.414.692c-.175-.888-2.663-11.698-2.663-11.698-4.752-17.524-12.125-17.265-59.029-20.858-17.965-1.392-73.924-12.766-87.291-29.414 3.371.019 6.671.008 9.88.019 19.338 13.783 65.473 22.947 81.519 24.163C-12.104-17.281-4.73-17.504 0 0" style="fill:#fff;fill-opacity:1;fill-rule:nonzero;stroke:none" transform="translate(903.373 71.123)"/><path d="M0 0c-34.321-3.058-69.376-33.741-77.406-69.218 0 0-29.532-130.251-29.739-131.335-.23-1.092 0-1.719 1.818-1.74 1.712.01 74.908.243 83.388.283.543-.016.906.371 1.073 1.094C-17.225-184.872 25.007 1.025 25.073 1.383c.061.398-.398.596-.747.57C23.96 1.929 11.595.986 0 0" style="fill:#c7a079;fill-opacity:1;fill-rule:nonzero;stroke:none" transform="translate(358.051 204.755)"/><path d="M0 0c-28.008-5.248-56.337-32.498-62.96-61.649 0 0-27.654-121.806-27.85-122.836-.148-1.034.528-1.352 1.174-1.394.618.04 63.22.207 69.106.238.281.014.471.181.554.482C-17.53-174.441 22.523 2.205 22.579 2.618c.061.342-.281.792-.822.708C21.272 3.27 11.133 2.085 0 0" style="fill:#071d3d;fill-opacity:1;fill-rule:nonzero;stroke:none" transform="translate(351.018 195.687)"/><path d="M0 0c-29.662-3.276-57.011-27.72-63.633-56.876 0 0-25.812-113.951-25.971-114.621-.247-.694-.048-1.108 1.012-1.124.983.04 49.695.191 54.599.191.292.002.425.157.477.416C-31.345-162.598 5.409-.44 5.483-.104c.106.345-.137.706-.599.66C4.421.493 0 0 0 0" style="fill:#1d467d;fill-opacity:1;fill-rule:nonzero;stroke:none" transform="translate(358.762 189.4)"/><path d="m0 0 1.405 6.119c-27.821-3.114-53.922-26.278-60.16-53.789l-25.157-110.788 5.285.028L-54.69-52.872C-48.724-25.096-25.674-5.284 0 0" style="fill:#fff;fill-opacity:1;fill-rule:nonzero;stroke:none" transform="translate(357.856 179.296)"/><path d="M0 0c-39.104-.149-76.643-30.751-85.502-69.7 0 0-29.915-131.934-29.996-132.246-.053-.286.217-.637.649-.631.342-.011 75.779.103 84.773.084.565.014.959.568 1.084.95.088.371 29.721 131.194 29.721 131.194 1.082 3.095 2.967 6.953 5.865 7.569l23.135.074S-1.07-198.554-1.556-200.534c-.254-1.1.239-1.842 1.363-1.855 12.211.04 83.117.265 83.471.26.361-.014 1.236.326 1.346.927C87.979-186.597 129.84-2.134 130.015-1.1c.241 1.079-.081 1.49-1.126 1.481C127.924.376 0 0 0 0" style="fill:#c7a079;fill-opacity:1;fill-rule:nonzero;stroke:none" transform="translate(459.02 206.287)"/><path d="M0 0c-34.867-.109-69.649-28.473-77.552-63.25 0 0-27.923-123.09-27.992-123.451-.104-.413.031-.75.527-.75.479.012 62.027.162 69.583.242.503-.032.853.448.941.824.074.339 28.414 125.218 28.414 125.218 2.748 8.26 7.213 12.832 12.953 13.646l32.851.127S8.801-184.164 8.398-185.312c-.369-1.118.143-1.81 1.182-1.802 10.415.029 68.281.236 68.663.231a.83.83 0 0 1 .886.702c2.853 12.402 41.823 183.798 41.942 184.922.172 1.155-.785 1.638-1.511 1.638C118.781.35 0 0 0 0" style="fill:#071d3d;fill-opacity:1;fill-rule:nonzero;stroke:none" transform="translate(458.481 198.374)"/><path d="M0 0c-31.485-.122-62.944-25.785-70.052-57.244 0 0-25.971-114.38-26.082-114.939-.1-.53-.048-.779.426-.764.475-.013 48.275.138 54.903.159.534.024.845.361.98.822.066.262 27.105 119.659 27.105 119.659C-7.751-37.096 1.855-33.701 7.256-33.055l39.696.157c.387-.024.911-.08 1.38-.62.345-.422.422-.964.255-1.556 0 0-30.688-134.878-30.799-135.904-.185-.996.209-1.643 1.333-1.622 9.339.019 53.125.16 53.56.144.753-.024 1.102.649 1.176 1.028C76.288-160.735 112.479-.954 112.676-.482c.079.524-.284.826-.738.826C111.448.344 0 0 0 0" style="fill:#1d467d;fill-opacity:1;fill-rule:nonzero;stroke:none" transform="translate(458.1 190.848)"/><path d="m0 0 102.488.308 1.153 5.22-107.738-.302c-29.782-.101-59.423-24.349-66.168-54.101l-25.111-110.792 5.271.024 23.967 105.526C-59.431-24.36-29.747-.085 0 0" style="fill:#fff;fill-opacity:1;fill-rule:nonzero;stroke:none" transform="translate(462.213 181.588)"/><path d="M0 0c-.683.922-1.728 1.585-2.88 1.892A5.693 5.693 0 0 0-3.018.281l-30.118-132.602 5.298.037L1.063-4.977C1.487-3.162 1.082-1.368 0 0" style="fill:#fff;fill-opacity:1;fill-rule:nonzero;stroke:none" transform="translate(513.655 154.595)"/><path d="m0 0 18.312 79.46c5.88 25.774 29.14 47.693 54.925 52.911.862 4.134 1.182 6.072 1.182 6.072-27.802-3.08-53.94-26.265-60.212-53.75L-4.084 5.245c-13.677.01-27.971 1.213-36.091 2.793 1.476-2.174 3.859-4.927 4.089-5.229C-27.675.418-13.637.042 0 0" style="fill:#fff;fill-opacity:1;fill-rule:nonzero;stroke:none" transform="translate(70.126 37.642)"/><path d="m0 0 129.554.392c10.163.035 18.951-3.416 25.126-9.755a26.152 26.152 0 0 1-2.041 2.934c-6.172 7.799-15.831 12.084-27.158 12.06L-4.113 5.199c-63.604-.175-77.168-60.376-77.168-60.376s3.016 3.233 8.593 7.465C-64.768-29.997-44.813-.135 0 0" style="fill:#fff;fill-opacity:1;fill-rule:nonzero;stroke:none" transform="translate(112.65 243.855)"/><path d="M0 0c13.158.045 54.433.135 63.739 37.276 0 0 22.609 104.397 23.154 106.366 2.377 9.378 4.564 18.273-.029 24.269a11.502 11.502 0 0 1-2.51 2.353c2.354-5.806.443-13.385-1.534-21.389-.557-1.979-23.185-106.392-23.185-106.392C50.349 5.345 9.105 5.245-4.11 5.245l-3.976.058L-9.254.032Z" style="fill:#fff;fill-opacity:1;fill-rule:nonzero;stroke:none" transform="translate(128.802 37.822)"/><path d="M0 0c-1.097-4.102-3.101-9.137-6.744-9.815l-22.727-.056 15.233 67.1c1.051 4.161 3.095 9.183 6.71 9.853l22.764.045zm-14.529 129.785c-39.084-.135-76.617-30.712-85.439-69.665 0 0-29.544-130.301-29.744-131.242-.216-.939-.348-1.752.98-1.802 1.272-.056 128.97.392 128.97.392 39.079.114 76.615 30.703 85.497 69.649 0 0 29.817 131.463 29.904 132.064.14.62-.212 1.007-.814.996-.591.022-129.354-.392-129.354-.392" style="fill:#c7a079;fill-opacity:1;fill-rule:nonzero;stroke:none" transform="translate(679.54 78.55)"/><path d="m0 0-32.487-.117 17.212 76.004C-13.542 82.64-9.704 90.95-1.452 92.05l32.521.093-17.292-75.919C12.068 9.402 8.208 1.095 0 0m-8.618 139.566c-34.853-.108-69.657-28.472-77.536-63.252 0 0-27.77-122.528-27.872-123.075-.133-.527.028-1.142.787-1.134.755 0 120.447.358 120.447.358 34.771.125 69.586 28.488 77.485 63.263 0 0 27.721 122.321 27.89 123.04.138.75-.572 1.19-1.192 1.16-.703.014-120.009-.36-120.009-.36" style="fill:#071d3d;fill-opacity:1;fill-rule:nonzero;stroke:none" transform="translate(673.129 60.877)"/><path d="m0 0-.178-.596c-4.15-16.581-13.518-21.124-20.716-21.975l-39.427-.124c-.419-.011-.923.053-1.378.647-.356.395-.438.94-.302 1.548l18.693 82.451c4.232 16.759 13.693 21.211 20.766 22.004l.544.037 38.852.129c.593-.01 1.073-.243 1.416-.636.328-.413.417-.962.281-1.585zm81.921 117.367c-.427-.013-111.918-.337-111.918-.337-31.469-.106-62.974-25.798-70.046-57.265 0 0-25.862-113.925-25.977-114.526-.137-.638.477-1.187 1.021-1.166.532-.031 111.488.31 111.488.31 31.52.106 62.998 25.778 70.162 57.263 0 0 25.859 114.454 26.036 114.96.09.519-.344.768-.766.761" style="fill:#1d467d;fill-opacity:1;fill-rule:nonzero;stroke:none" transform="translate(694.107 75.893)"/><path d="m0 0-18.718-82.608c-5.053-19.997-17.485-24.248-24.467-25.038l-39.649-.138a4.96 4.96 0 0 0-1.626.289c.058-1.232.445-2.387 1.208-3.355 1.063-1.378 2.767-2.157 4.564-2.157l39.628.122c6.941.753 19.365 5.054 24.421 25.044L4.105-5.223A5.538 5.538 0 0 1 3.008-.292C2.287.652 1.283 1.288.143 1.627.116 1.079.125.525 0 0" style="fill:#fff;fill-opacity:1;fill-rule:nonzero;stroke:none" transform="translate(716.593 156.937)"/><path d="m0 0 102.455.305 1.192 5.231L-4.096 5.24c-29.756-.069-59.421-24.344-66.143-54.126l-25.129-110.773 5.298.021 23.912 105.55C-59.431-24.335-29.723-.087 0 0" style="fill:#fff;fill-opacity:1;fill-rule:nonzero;stroke:none" transform="translate(668.229 183.644)"/><path d="m0 0 56.126.511C57.564.524 59 1.699 59.33 3.135l7.191 31.229c.332 1.436-.567 2.59-2.006 2.576L-8.9 36.272c-1.14-.011-2.337-.486-3.313-1.317l-25.441-21.673L-53.2 34.581c-.596.817-1.578 1.273-2.718 1.263l-67.928-.619c-1.142-.01-2.342-.488-3.318-1.322l-24.016-20.51c-.911-.779-1.556-1.806-1.801-2.869l-20.177-87.619c-.33-1.436.568-2.589 2.007-2.576l31.296.285c1.439.013 2.874 1.188 3.204 2.624l16.324 70.887c.546 2.369 2.912 4.306 5.286 4.328l33.341.303c2.373.022 3.855-1.881 3.309-4.249L-94.715-76.38c-.33-1.436.569-2.59 2.007-2.577l31.296.285c1.438.013 2.873 1.188 3.204 2.624l4.636 20.128 15.539-21.254c.596-.815 1.578-1.27 2.717-1.26l73.417.668c1.438.014 2.873 1.188 3.204 2.624l7.191 31.229c.331 1.436-.568 2.59-2.008 2.576l-56.125-.51c-2.373-.022-3.855 1.881-3.31 4.25l7.662 33.269C-4.74-1.959-2.374-.021 0 0" style="fill:#5c8ebb;fill-opacity:1;fill-rule:nonzero;stroke:none" transform="translate(924.318 318.85)"/></g></svg>