<svg xmlns="http://www.w3.org/2000/svg" xml:space="preserve" width="131.1044" height="83.490265" viewBox="0 0 131.1044 83.490264"><defs><clipPath id="b" clipPathUnits="userSpaceOnUse"><path d="M0 595.276h841.89V0H0Z"/></clipPath><clipPath id="a" clipPathUnits="userSpaceOnUse"><path d="M232.031 397.975a4.31 4.31 0 0 0-.66-.015c.187-.103.381-.202.58-.297.016.063.057.23.08.312zm19.46-.31-.002-.001h.005zm.002-.001-.001-.001h.003zm.12.002c.003-.169.009-.337.012-.506l.032.001-.01.504zm-.117-.003c-.002-.168 0-.336-.006-.504l-.182-.003h-3.54c.002-.91-.005-.95-.023 0h-.006c0-.021-.036-.007-.064 0-.012.003-.017 0-.026 0H241.904c-.046-.003-.117-.035-.126 0h-8.526a3.398 3.398 0 0 1-.526-.144c-.185-.022-.37-.059-.556-.067-1.698-.076-3.397.011-5.095.019l-.113-.002v-.012c0-.04-.08 0-.119 0-.046 0-.134-.046-.137 0v.005c-.94 0-1.88-.005-2.82-.005h-16.704c-.054 0-.16-.054-.161 0v.005h-.055c-.26-.007-.58-.008-1.057-.008H194.666c0-1.484-.002-2.97-.028-4.453l.03-.016c.294-.132.068-.64.084-.96.08-1.573.035-3.638-.006-5.06-.039-1.425-.112-2.848-.168-4.272-.069-1.302-.133-2.604-.205-3.905v-9.35c.01-.077.024-.153.028-.23.051-1.254-.005-2.512-.028-3.766v-1.436h.003v-.073c.093-.014.08-.248 0-.302-.004-.648-.004-1.295-.003-1.943v-.229h-.002c0-.815-.04-.86-.715-.68 0-.093 0-.187-.002-.28-.086.019-.018-.062-.015-.12.015-.297.057-.595.033-.892-.02-.23-.107-.447-.16-.67l.017.073c-.002.01.001.036-.008.03-.013-.007-.01-.028-.014-.043-.008-.032-.02-.063-.022-.096-.04-.733.005-.53-.126-1.227.004-.19 0-.378 0-.567a.16.16 0 0 1-.09.067 4.3 4.3 0 0 0 .083-.489l.01.001c.005.138-.001.274-.001.412.088-.133.104-.387-.006-.451-.002.01-.002.027-.003.038-.263-.05-.526-.11-.788-.167l.009-.101c.256.067.511.138.764.216.006.002.011.008.017.012.028-.239.052-.501.074-.825.011-1.05.043-1.096-.124-2.313-.024-.173-.09-.34-.132-.51-.1-.397-.197-.789-.233-1.199 0-.02-.047-.585-.047-.606-.003-.183.02-.365.012-.547-.027-.635-.146-1.24-.236-1.866-.019-.262-.012-.528-.057-.787-.103-.586-.3-1.154-.387-1.743-.035-.235.152.403.221.664 0 .065-.002.13.002.196.003.053.024-.107.01-.158-.001-.01-.008-.028-.011-.038V345.587c0-.738.004-1.476 0-2.215.024-.178.047-.382.077-.636-.006-.924.013-1.091-.115-2.141-.036-.294.13-.806-.158-.873l-.103-.025c.004-.274.008-.548.01-.822.008-.942.02-1.885.016-2.827.053-.005.12-.013.173-.02.27.04.536.107.804.16l.04.01v.004c-.02.147.279.101.423.136.264.064.712.417.8.16.083-.242.148-.489.223-.733l.21-.022h.056c.043.01.086.017.128.027l-.059.612c2.72.031 5.443.037 8.164.04.679 0 1.358.014 2.037 0 .567-.013 1.133-.056 1.7-.082.522-.067.99-.12 1.416-.214.388 0 .776.006 1.163.006.487 0 .743-.022 1.08-.087l.127-.002c.121.008.327.11.337-.003v-.003c.228-.007.352-.047.403-.2H213.266c.44.017.757-.076 1.158-.197.359.239.39.311.882.173H215.324c.124-.035.44-.122.63-.177h.246c-.257.102-.512.181-.822.182.106.005.221.02.349.023.587.003 1.176-.004 1.763-.006.059 0 .118-.006.176-.006.022 0 .085.002.063 0-.188-.017-.375-.028-.564-.043.827.072 1.658.047 2.488.047.442.002.785 0 1.142-.067.043.002.081.012.125.013.16.124.315.3.49.24.232-.078.422-.158.62-.237.227.047.472.094.592.095.035.001.07-.003.105-.003.296.2.705.12 1.06.163.07.008.142-.008.213-.012l.05.003c.109.037.216.076.325.109.084.025.203.072.292.068.036.085.075.169.124.251-.664.2-.956.197-1.547.078.746.3 1.393.646 2.137.591.625.507 1.583.872 2.88.936.404.02.812-.027 1.215 0l.502.077c.12.015.24.025.36.038.37.014.34.026.742-.02.082-.008.163-.042.246-.042.045 0-.171.026-.13.043.339.138.168-.144.285.111.72.258.49.19 1.541.466.238.062.473.141.716.171.48.059.967.086 1.45.093.046 0 1.703-.117 1.76-.12.194-.013.39-.023.583-.037.25-.018.498-.039.747-.06.145-.013.29-.035.435-.04.239-.009.995.007 1.25.01l1.248.015c1.526.016.895.02 3.11-.04.56-.014 1.12-.007 1.678-.054a28.084 28.084 0 0 0 2.013-.25c.28-.044.961-.2 1.459-.314.107.021.211.04.337.07.53-.019 1.039-.187 1.555-.288.148-.029.297-.047.446-.069.045-.007.093-.006.139-.009.204.02.409.044.614.056.301.899.451 1.157.265.015.435.017.87.024 1.305.038.007.025.011.048.02.074.007.026.493.017.872.01.964.43 1.742.703.886.147a1.947 1.947 0 0 0-.338-.164c.151.001.362.004.272-.011-.042-.007-.085-.004-.128-.006.191.005.382.012.574.016 1.227.505 2.866.473 4.188.505 3.626.088 3.332.065 6.778.046.146-.001 4.727-.024 5.877-.017 1.375.008 2.75.036 4.126.059 15.008 2.122 1.818.335 11.915 1.841V365.642c0 .306 0 .613.003.92.005.382-.024.765.012 1.148.01.403.024.805-.003 1.208-.033.504-.125 1.005-.113 1.51V374.29c0 1.178.282 2.075.71 2.7-.005.275-.008.55-.006.825.006.283 0 .543 0 .854v2.029c-.019.483.023.936.112 1.417.011.062.031.121.05.181 0 .003 0 .006.002.01.016.052.029.106.043.159-.012.003-.025-.037-.036-.097.008.076.014.152.023.227.04.314.119.624.185.933-.066.182-.071.16-.05.44.14 1.861.03.255.25 1.6.006.038-.017.076-.022.115-.005.044-.004.087-.006.13-.022.882-.073 1.763-.042 2.645-.01.593 0 1.18.06 1.77.016.164.06.323.069.487.014.27-.006.54-.007.812v.933c-.03.996-.024 1.986.022 2.982.011.245.03.49.045.734a28.665 28.665 0 0 0-2.1-.117c-.546.035-.555.031-1.141.126l-.065-.012c-.135-.024-.269-.057-.406-.067-.228-.018-.584-.225-.688-.02-.182-.022-.364-.048-.546-.062-.276-.022-1.187 0-1.396.006-1.724.045-3.448.017-5.173.013-1.056.003-2.112 0-3.168 0h-2.208a5.434 5.434 0 0 0-.628-.205c-.185-.046-.468-.054-.737-.04-.044-.086-.052.001-.494-.054-.52-.065-1.054-.006-1.576 0-.114 0-.227.003-.341.003-.293 0-.586-.007-.88-.006a.397.397 0 0 0 .079.006c1.49.041 1.624.493 1.215 1.11h-7.737c-.04 0-.12-.04-.123 0-.003.061-.004.144-.006.207-.038 0-.076-.006-.114-.006 0-.102 0 0 .003-.205h-2.288c-.367-.002-.733-.01-1.1.01.216.012.359.046.51.09a.288.288 0 0 0-.09.102h-.973l-.017-.003h-.648a.924.924 0 0 1 .202-.035c.137-.01.455.048.438.034-.158-.042-.327-.039-.49-.046-.76-.032-.72-.017-1.385.049l-.115.017c-.387.007-.774.01-1.16.043-.108.009-.214.028-.321.042-.244-.005-.53-.005-.916-.003-.223 0-.445.002-.668.003-.368.002-.833 0-1.217 0h-.395c-.018-.002-.034 0-.05 0l-.02.507h-.048zm10.73-.604-.003-.202c0 .04.002.146.006.202h-.003zm-2.734-.003c-.009-.019-.017-.062-.026-.075l.234.075h-.208zm30.46-14.752-.003-.01c-.028-.185-.047-.444-.034-.332.014.114.026.228.037.341zm.475-4.149c-.016.036-.36-.65-.503-.892a13.797 13.797 0 0 1-.026-.123c.022.029.046.054.069.08.156.288.342.563.445.872.013.038.017.058.015.063zm-25.669-39.713c-.126.014-.25-.063-.372-.2l.665.002c-.1.117-.196.187-.293.198zm-12.915-.626-.003-.01c.01.001.021.005.032.005l-.03.006zm-26.637-.73-.302-.033c-.25-.088-.501-.172-.75-.265-.022-.008-.084-.044-.061-.038.647.174.862.254 1.113.335zm-1.967-.55c-.124-.05-.228-.099-.36-.143-.104-.074-.422-.285-.313-.22.181.107.327.297.532.34.055.011.092.014.14.023zm-16.026-.385c-.053-.005-.105-.009-.16-.016.156.002.313.005.47-.006a.988.988 0 0 1-.31.022zm17.25-.03c-.058-.003-.154-.047-.115-.039.049.011.1.017.15.027-.008.008-.018.012-.035.011zm-.991-.201a1.027 1.027 0 0 1-.276-.012c-.044-.01-.085-.027-.129-.038.174-.006.348-.005.522-.01.032.013.064.028.097.04a8.027 8.027 0 0 1-.214.02zm.307-.031-.054-.032c.078-.001.156-.007.234-.006.062 0-.09.026-.18.038zm-1.276-.195-.12-.042.065-.017.055.06zm.739-.125-.09-.05a.514.514 0 0 0 .122-.043c-.011.03-.02.063-.032.093zm.032-.093.019-.056c.062-.02.106-.042.166-.063a.964.964 0 0 1-.185.119zm-.122.044a.226.226 0 0 1-.15-.025l.07-.02.08.045z" style="fill:red;fill-opacity:1;fill-rule:nonzero;stroke:none;stroke-width:176776"/></clipPath></defs><g clip-path="url(#a)" transform="matrix(1.33333 0 0 -1.33333 -256.196 530.633)"><g clip-path="url(#b)"><path d="M220.342 388.933c-1.91 0-2.268 1.124-2.186 2.401h1.542c0-.705.031-1.298.879-1.298.521 0 .777.337.777.838 0 1.328-3.106 1.41-3.106 3.605 0 1.156.552 2.075 2.431 2.075 1.502 0 2.248-.674 2.145-2.217h-1.502c0 .552-.092 1.113-.715 1.113-.5 0-.796-.275-.796-.786 0-1.399 3.105-1.277 3.105-3.596 0-1.91-1.399-2.135-2.574-2.135M226.839 395.011h-.021l-.705-3.187h1.471zm-2.973-5.955 2.043 7.375h2.032l2.003-7.375h-1.625l-.408 1.634h-2.104l-.419-1.634zM231.048 389.056v7.375h2.482l1.155-5.016h.019l1.227 5.016h2.4v-7.375h-1.502v5.689h-.02l-1.42-5.689h-1.471l-1.349 5.689h-.02v-5.689zM241.997 388.933c-1.91 0-2.268 1.124-2.185 2.401h1.542c0-.705.031-1.298.878-1.298.521 0 .777.337.777.838 0 1.328-3.106 1.41-3.106 3.605 0 1.156.552 2.075 2.431 2.075 1.502 0 2.248-.674 2.145-2.217h-1.501c0 .552-.092 1.113-.715 1.113-.5 0-.797-.275-.797-.786 0-1.399 3.105-1.277 3.105-3.596 0-1.91-1.399-2.135-2.574-2.135M251.069 396.431v-5.23c0-1.103-.623-2.268-2.503-2.268-1.696 0-2.512.879-2.512 2.268v5.23h1.542v-5.128c0-.909.388-1.267.95-1.267.674 0 .98.449.98 1.267v5.128zM252.743 389.056v7.375h2.084l1.962-5.108h.021v5.108h1.44v-7.375h-2.033l-2.013 5.393h-.02v-5.393zM263.326 394.163c.01.685-.102 1.287-.919 1.287-.961 0-.961-1.297-.961-2.727 0-2.309.225-2.717 1.104-2.717.255 0 .531.061.765.142v1.635h-.836v1.134h2.379v-3.738c-.419-.082-1.47-.246-2.084-.246-2.594 0-2.89 1.073-2.89 3.872 0 1.859.092 3.749 2.615 3.749 1.512 0 2.451-.848 2.359-2.391z" style="fill:#0066b3;fill-opacity:1;fill-rule:nonzero;stroke:none"/><path d="m219.567 372.451-1.047-4.101 1.205.316-2.157-8.251a8.375 8.375 0 0 1-.25-1.975c0-1.38.4-2.579 1.169-3.432.725-.802 2.123-1.686 4.67-1.335 1.976.269 3.813 1.228 5.459 2.844l1.112 1.091-3.418 2.052-.665-.634c-.048-.047-.097-.086-.146-.126.021.148.049.321.098.523-.004-.011 3.526 14.449 3.526 14.449l.53 2.171z" style="fill:#9d9fa2;fill-opacity:1;fill-rule:nonzero;stroke:none"/><path d="m200.823 340.032-.535 1.54 1.812.822c9.674 4.13 23.02 8.773 36.61 12.741 13.939 4.07 26.324 6.875 33.978 7.696l1.362.146-.077-3.892-.957-.184c-6.605-1.275-29.962-6.651-53.255-22.373l-.651-.437-.662.415c-5.053 3.162-12.111 3.597-15.869 3.573-.555.009-1.756-.047-1.756-.047M225.668 382.567c-2.451-.435-4.484-2.487-4.628-4.672a3.452 3.452 0 0 1-.009-.249c0-.978.383-1.855 1.097-2.493.889-.796 2.189-1.112 3.566-.868 2.452.432 4.485 2.482 4.631 4.668.071 1.077-.316 2.052-1.088 2.745-.89.795-2.189 1.113-3.569.869M202.001 376.363l-1.086-4.224 1.414.382-4.467-19.943c-.193-.629-1.018-1.094-1.732-1.318l-.608-.193-1.906-6.311 2.352.975c7.697 3.195 19.211 6.281 19.326 6.311l.606.162 2.67 7.37-2.878-.677c-.39-.092-.635-.259-.795-.45-.359-.44-1.523-1.649-2.619-2.009l-5.068-1.396a.11.11 0 0 0-.025-.005l5.777 25.192zM241.116 375.09c.145.015.297.015.44.01l-3.09-12.492c-.117-.455-.817-.852-1.623-.909a.335.335 0 0 0-.106.015c.163.642 3.196 12.759 3.213 12.824.113.176.692.497 1.166.552m.752 4.686c-5.826-.717-10.215-4.194-11.453-9.069l-1.734-7.017.007.029c-.615-2.24-.376-4.01.71-5.259 1.255-1.441 3.449-1.969 6.519-1.567 5.852.763 10.186 3.951 11.31 8.317l1.961 7.764c.55 2.259.274 4.023-.819 5.249-1.255 1.409-3.442 1.931-6.501 1.553M265.87 384.772c-1.209-.195-2.611-.686-3.883-1.315l.229.903-10.18-3.785-.976-4.072 1.209.364c-.77-3.157-4.067-16.646-4.067-16.646l8.601 2.103 3.478 14.399c.197.852.62 1.383 1.356 1.706l-2.062-8.678-.113-.442c-.457-1.759-1.084-4.166.234-5.655.732-.821 1.864-1.133 3.366-.927 2.658.364 4.998 1.75 6.954 4.121l.87 1.053-3.203 2.031 2.257 9.433c.163.665.247 1.278.247 1.836 0 1.069-.301 1.935-.901 2.586-.785.85-2.029 1.208-3.416.985" style="fill:#a1a1a4;fill-opacity:1;fill-rule:nonzero;stroke:none"/><path d="M279.215 386.884c-4.927-1.033-7.692-4.567-7.587-9.692.064-3.069 1.972-5.6 3.815-8.047 1.581-2.101 3.076-4.083 3.124-6.079.093-3.705-1.54-4.226-2.084-4.347-.953-.214-1.659.362-1.857.605 1.656.774 3.324 2.247 3.324 4.36 0 .137-.008.276-.021.419-.141 1.363-.798 2.111-1.328 2.497-1.174.86-2.568.655-2.965.572-2.903-.605-4.746-3.47-4.201-6.524.886-4.944 5.505-6.465 9.425-5.79 2.838.493 5.207 1.919 6.674 4.022 1.449 2.081 1.941 4.683 1.418 7.525-.543 2.943-2.117 5.266-3.64 7.512-1.581 2.329-3.071 4.529-3.181 7.174-.036.843.207 1.473.466 1.723.099.096.164.104.226.098.092-.005.308-.021.535-.369.514-.78.586-2.395.161-3.601l-.143-.401.73-2.064 6.952 3.25-.098.859c-.229 2.063-1.258 3.856-2.9 5.048-1.856 1.342-4.288 1.786-6.845 1.25" style="fill:#a1a1a4;fill-opacity:1;fill-rule:nonzero;stroke:none"/><path d="M225.819 381.712c-2.041-.358-3.798-2.098-3.916-3.874a3.037 3.037 0 0 1-.006-.19c0-.729.284-1.378.807-1.85.691-.618 1.727-.859 2.84-.661 2.041.36 3.799 2.097 3.916 3.876.054.802-.231 1.529-.803 2.041-.687.617-1.721.858-2.838.658M202.725 375.701l-.603-2.339 1.365.369-4.791-21.387c-.343-1.176-1.725-1.729-2.304-1.911l-.173-.055-1.245-4.121.663.274c7.752 3.218 19.316 6.318 19.432 6.347l.172.046 1.971 5.44-1.033-.243c-.444-.103-.606-.144-.658-.279-.268-.313-1.573-1.776-2.986-2.231l-5.123-1.412c-.511-.121-.886-.103-1.043.056-.141.142-.157.468-.042.914.003.008 5.439 23.719 5.439 23.719zM220.291 371.789l-.569-2.228 1.216.317-2.527-9.661a7.551 7.551 0 0 1-.225-1.783c0-1.162.321-2.154.944-2.845.584-.647 1.738-1.356 3.909-1.058 1.786.245 3.459 1.12 4.97 2.606l.312.305-1.89 1.137-.188-.18c-.404-.385-.807-.606-1.202-.659-.183-.026-.243.039-.269.069-.162.177-.265.759-.019 1.812l3.678 15.067zM239.118 374.783c.147.598 1.223 1.09 1.901 1.168.571.065 1.351-.024 1.541-.239.019-.022.03-.039.018-.089l-3.27-13.224c-.217-.834-1.205-1.48-2.403-1.565-.362-.024-.759.122-.967.358a.476.476 0 0 0-.13.316c0 .029.004.058.008.088.005.025 3.302 13.187 3.302 13.187m2.856 4.134c-5.463-.674-9.573-3.901-10.72-8.424l-1.733-7.012c-.531-1.933-.353-3.435.531-4.452 1.037-1.192 3.027-1.633 5.752-1.278 5.494.718 9.55 3.659 10.584 7.675l1.963 7.76c.474 1.96.263 3.459-.629 4.461-1.053 1.185-2.988 1.61-5.748 1.27M266.01 383.917c-1.704-.276-3.9-1.217-5.372-2.253l.333 1.309-8.201-3.05-.519-2.155s.895.267 1.219.366l-4.086-16.733 6.701 1.639 3.353 13.887c.284 1.23.997 2.022 2.179 2.427.46.155.813.088.958-.047.035-.031.136-.123.072-.372l-2.229-9.383-.12-.462c-.406-1.57-.967-3.719.048-4.859.524-.593 1.399-.81 2.598-.647 2.436.333 4.589 1.618 6.404 3.814l.245.298-1.94 1.229-.185-.263c-.438-.616-.93-.892-1.131-.863a.263.263 0 0 0-.016.106c0 .059.008.13.033.21l.004.01 2.738 11.44c.149.603.223 1.147.223 1.633 0 .847-.223 1.516-.672 2.002-.582.633-1.544.894-2.637.717M272.782 361.969c-7.607-.815-19.937-3.609-33.83-7.666-13.559-3.959-26.867-8.59-36.514-12.706l-.361-.158.143-.485.354-.007c3.851.024 11.093-.428 16.333-3.707l.188-.118.181.124c23.43 15.812 46.93 21.223 53.575 22.505l.269.053.043 2.208z" style="fill:#fff;fill-opacity:1;fill-rule:nonzero;stroke:none"/><path d="M279.394 386.036c-4.548-.954-6.997-4.088-6.899-8.827.058-2.79 1.879-5.206 3.641-7.543 1.668-2.214 3.242-4.306 3.299-6.579.071-2.913-.849-4.64-2.734-5.128-.719-.184-1.639 0-2.341.477-.509.343-.843.809-.99 1.33 1.592.489 3.711 1.865 3.711 3.935 0 .103-.005.209-.014.315-.086.838-.414 1.472-.976 1.885-.705.515-1.64.557-2.279.421-2.479-.515-3.995-2.888-3.524-5.519.781-4.363 4.915-5.697 8.426-5.089 2.607.449 4.777 1.75 6.109 3.661 1.317 1.888 1.757 4.264 1.277 6.873-.509 2.766-2.033 5.013-3.505 7.182-1.651 2.434-3.209 4.734-3.329 7.625-.041.991.237 1.903.726 2.38.257.251.556.364.891.341.488-.033.891-.288 1.2-.758.665-1.011.773-2.887.252-4.364l-.039-.112.308-.875 5.522 2.582-.025.24c-.204 1.821-1.108 3.398-2.549 4.443-1.656 1.198-3.844 1.59-6.158 1.104" style="fill:#fff;fill-opacity:1;fill-rule:nonzero;stroke:none"/><path d="m215.837 357.692.842.199-1.698-4.685s-11.611-3.099-19.474-6.36l.985 3.263c1.075.339 2.21 1.04 2.532 2.144l4.916 21.95-1.344-.363.413 1.599 8.289 2.924-5.301-23.11c-.309-1.216.226-1.687 1.506-1.381l5.138 1.415c1.696.55 3.196 2.405 3.196 2.405M229.122 379.033c-.108-1.632-1.738-3.227-3.637-3.562-1.9-.336-3.351.714-3.242 2.344.108 1.635 1.736 3.229 3.635 3.565 1.898.336 3.352-.714 3.244-2.347M226.477 358.154c-.436-.415-.9-.683-1.392-.75-.856-.121-.971.978-.664 2.293l3.531 14.461-7.377-2.628-.381-1.495 1.219.319-2.674-10.223c-.717-2.943.254-5.813 4.254-5.264 1.824.249 3.416 1.171 4.778 2.509zM248.021 373.27c1.074 4.419-1.586 5.857-6.006 5.31-5.097-.628-9.266-3.582-10.433-8.17l-1.731-7.011c-1.206-4.391 1.494-5.887 5.908-5.311 5.064.661 9.244 3.313 10.302 7.422zm-11.092-12.773c-.737-.052-1.59.458-1.446 1.169l3.307 13.2c.191.78 1.428 1.333 2.191 1.421.666.076 2.098-.014 1.926-.743l-3.271-13.225c-.274-1.061-1.461-1.734-2.707-1.822M253.056 379.669l-.336-1.406 1.22.367-4.095-16.768 5.958 1.458 3.307 13.687c.34 1.478 1.243 2.272 2.398 2.666.897.307 1.663-.055 1.468-.822l-2.229-9.378c-.507-2.039-1.863-6.102 2.15-5.554 2.999.411 4.992 2.245 6.19 3.696l-1.343.851c-.489-.692-1.132-1.112-1.532-.987-.238.074-.279.427-.181.737l2.736 11.43c.855 3.47-1.051 4.204-2.704 3.936-2.049-.33-4.738-1.629-6.001-2.809l.421 1.658z" style="fill:#0066b3;fill-opacity:1;fill-rule:nonzero;stroke:none"/><path d="M278.927 381.041c-.07 1.675.705 3.162 1.978 3.073 2.032-.139 2.524-3.377 1.75-5.572l.145-.411 4.965 2.32c-.416 3.749-3.918 6.173-8.303 5.254-4.725-.992-6.713-4.325-6.628-8.487.108-5.253 6.819-9.259 6.938-14.122.09-3.627-1.359-5.043-2.987-5.464-1.461-.377-3.586.577-3.821 2.372 1.693.409 3.982 1.853 3.764 3.977-.213 2.102-2.044 2.177-2.847 2.011-2.036-.423-3.484-2.328-3.301-4.64-16.949-2.348-49.063-11.98-68.007-20.068 5.316.033 11.82-.819 16.514-3.757 18.823 12.704 38.907 19.435 51.858 22.178 1.174-3.12 4.508-4.211 7.71-3.657 4.811.83 8.127 4.628 7.112 10.139-1.057 5.73-6.606 9.216-6.84 14.854" style="fill:#0066b3;fill-opacity:1;fill-rule:nonzero;stroke:none"/><path d="M841.89 0H0v595.275h841.89z" style="fill:none;stroke:#231f20;stroke-width:.3;stroke-linecap:butt;stroke-linejoin:miter;stroke-miterlimit:4;stroke-dasharray:none;stroke-opacity:1"/></g></g></svg>