<svg xmlns="http://www.w3.org/2000/svg" xml:space="preserve" id="레이어_1" x="0px" y="0px" style="enable-background:new 0 0 632.8 291" version="1.1" viewBox="0 0 632.8 291"><style>.st0{fill:#e83534}.st1{fill:#cf0022}</style><path d="M588.1 70.5c.4-1.5 1.9-2.8 3.3-2.9l35.8-3.1 5.5-20.7-57.1 5c-5.9.5-12 6.2-13.7 12.7l-5.3 19.8c-3.8 14.2 4.3 24.7 18 23.5l10.9-1c1.4-.1 2.3 1 1.9 2.4l-3.9 14.5c-.4 1.5-1.9 2.8-3.3 2.9l-52.2 4.6-2.7-15.1-24.3 55.1-22 9.7-424.8 37.2 50.3-187.5-53.4 4.8 14.7 13.3L0 291l495.8-88.1 9.1 51 24.5-55.2 53.8-23.8-48.7-10.9-2.8-16 64.4-5.6c5.9-.5 12-6.2 13.7-12.7L615 110c3.8-14.2-4.3-24.7-18-23.5l-10.9 1c-1.4.1-2.3-1-1.9-2.4l3.9-14.6z" class="st0"/><path d="m550.1 71.2 5.5-20.7-51.8 4.5c-5.9.5-12 6.2-13.7 12.7L472.5 133l-62.8 5.5c-1.4.1-2.3-1-1.9-2.4l4.6-17.2 47.9-4.2 8.4-31.5c3.8-14.2-4.3-24.7-18-23.5L409 63.3c-5.9.5-12 6.2-13.7 12.7l-16.1 60.3c-.5 1.7-.7 3.4-.9 5l-15.4 1.3c-1.4.1-2.3-1-1.9-2.4L398.3 1.3l-47.9 4.3L365 18.8l-13.3 49.5-37.3 3.3c-5.9.5-12 6.2-13.7 12.7l-16.1 60.3c-.5 1.7-.7 3.4-.9 5l-15.4 1.3c-1.4.1-2.3-1-1.9-2.4l13-48.7c3.8-14.2-4.3-24.7-18-23.5l-52.2 4.6-20.6 77-14.9 1.3c-1.4.1-2.3-1-1.9-2.4l13-48.7c3.8-14.2-4.3-24.7-18-23.5l-52.2 4.6-5.5 20.7 45.3-4c1.4-.1 2.3 1 1.9 2.4l-4.3 16.2-37 3.2c-6 .5-12.2 6-13.9 12.2l-5.7 21.2c-3.8 14.2 4.3 24.7 18 23.5l28-2.4c3-.3 6.1-2.2 8.1-4.8 2.1 2.3 5.7 3.6 10.1 3.2l17.7-1.5 8.5-10.3-2.6 9.8 29.2-2.6L233 99l16-1.4c1.4-.1 2.3 1 1.9 2.4l-13 48.7c-3.8 14.2 4.3 24.7 18 23.5l16.1-1.4 12.3-14.9c1.8 8.1 8.7 13.1 18.5 12.2l28-2.4c3-.3 6.1-2.2 8.1-4.8 2.1 2.3 5.7 3.6 10.1 3.2l17.7-1.5 12.3-14.9c1.8 8.1 8.7 13.1 18.5 12.2l63.9-5.6 8.5-10.3-2.6 9.8 29.2-2.6 19.9-74.3c.4-1.5 1.9-2.8 3.3-2.9l30.4-2.8zM421.5 85.1c.4-1.5 1.9-2.8 3.3-2.9l13.5-1.2c1.4-.1 2.3 1 1.9 2.4l-4.6 17.2-18.6 1.6 4.5-17.1zm-278.9 74.1c-.4 1.5-1.9 2.8-3.3 2.9l-13.5 1.2c-1.4.1-2.3-1-1.9-2.4l4.1-15.4c.4-1.5 1.9-2.8 3.3-2.9l16-1.4-4.7 18zm189.3-16.5c-.4 1.5-1.9 2.8-3.3 2.9l-13.5 1.2c-1.4.1-2.3-1-1.9-2.4l13.7-51c.4-1.5 1.9-2.8 3.3-2.9l16-1.4-14.3 53.6z" class="st0"/><path d="M119.6 174c-7.6.7-12-5.1-9.9-13l4.9-18.3c.5-1.9 1.7-3.7 3.3-5.1l-11.5-5.9c-2.5 2.2-4.5 5.1-5.3 8.2l-5.7 21.2c-3.8 14.2 4.3 24.7 18 23.5l28-2.4c3-.3 6.1-2.2 8.1-4.8 2.1 2.3 5.7 3.6 10.1 3.2l17.3-1.5-4-9.7-53.3 4.6zM221.1 89.9l-11.8-9.1-26.2 97.7 29.2-2.5-11.8-9.1zM350.4 5.6 365 18.8l-13.2 49.6 11.8 9 17.1-63.8zM447.9 107.6l-47.8 4.2 12.3 7.1 47.9-4.2zM495.3 59.2c-2.5 2.3-4.4 5.3-5.3 8.6l-23 85.9 29.2-2.6-11.8-9.1 18.7-69.8c.5-2 1.7-3.8 3.3-5.3l-11.1-7.7zM511.6 64.5c-1.8.2-3.7 1.1-5.2 2.5l11 7.8c.6-.5 1.3-.9 2-.9l30.6-2.7-9.3-9.3-29.1 2.6zM267.9 161l-5.8.5c-7.6.7-12-5.1-9.9-13l13-48.7c2.1-7.8-2.4-13.6-9.9-13l-34.1 3 11.8 9.1 16-1.4c1.4-.1 2.3 1 1.9 2.4l-13 48.7c-3.8 14.2 4.3 24.7 18 23.5l16.1-1.4-4.1-9.7z" class="st1"/><path d="m164.3 131.5-41.1 3.6c-1.9.2-3.8 1.1-5.3 2.5l11.5 5.9c.6-.5 1.3-.9 2-.9l16-1.4-4.8 18.1c-.2.7-.7 1.4-1.3 2l8.6 10.1c2.1-.2 4.3-2.1 4.8-4.3l9.6-35.6zM160.6 95.2l-36.7 3.2-9.3-9.3-5.5 20.7 45.3-4c1.4-.1 2.3 1 1.9 2.4l-4.3 16.2 12.4 7.1 6.3-23.4c2-7.8-2.5-13.6-10.1-12.9zM444.5 70.3 417 72.8c-1.8.2-3.7 1.1-5.2 2.5l11 7.8c.6-.5 1.3-.9 2-.9l13.5-1.2c1.4-.1 2.3 1 1.9 2.4l-4.6 17.2 12.4 7.1 6.5-24.3c2.1-7.9-2.4-13.7-10-13.1zM618 55.2l-34.4 3c-1.8.2-3.7 1.1-5.2 2.5l11 7.8c.6-.5 1.3-.9 2-.9l35.8-3.1-9.2-9.3zM562 61.4c.8-3.2 2.8-6.3 5.3-8.6l11 7.8c-1.5 1.4-2.8 3.3-3.3 5.3L570.4 83c-2.1 7.8 2.4 13.6 9.9 13l10.9-1c7.6-.7 12 5.1 9.9 13l-4.6 17.1c-.5 2-1.7 3.8-3.3 5.3l-11.1-7.8c.6-.5 1.1-1.2 1.3-2l3.9-14.5c.4-1.5-.4-2.6-1.9-2.4l-10.9 1c-13.7 1.2-21.8-9.3-18-23.5l5.5-19.8c.8-3.2 2.8-6.3 5.3-8.6" class="st1"/><path d="M593.4 130.4c-1.5 1.4-3.4 2.4-5.2 2.5l-48.9 4.3-11.2-9.1 3.5 19.9 64.4-5.6c2.9-.3 5.9-1.8 8.4-4.1l-11-7.9zM362.5 152.7l-53.6 4.7c-7.6.7-12-5.1-9.9-13l14.9-55.6c.5-2 1.7-3.8 3.3-5.3l-11-7.8c-2.5 2.3-4.4 5.3-5.3 8.6l-16.1 60.3c-3.8 14.2 4.3 24.7 18 23.5l28-2.4c3-.3 6.1-2.2 8.1-4.8 2.1 2.3 5.7 3.6 10.1 3.2l17.7-1.5-4.2-9.9zM457.1 144.4l-53.6 4.7c-7.6.7-12-5.1-9.9-13l14.9-55.6c.5-2 1.7-3.8 3.3-5.3l-11-7.8c-2.5 2.3-4.4 5.3-5.3 8.6l-16.1 60.3c-3.8 14.2 4.3 24.7 18 23.5l63.9-5.6-4.2-9.8z" class="st1"/><path d="m495.8 202.9-23.6-5.3-449.7 72.7L83.9 41l-32.8-8.7 14.7 13.3L0 291zM131 46.8l7-8.4c4.8 4 9.9 6.5 16 6.5 4.8 0 7.7-1.9 7.7-5.1v-.2c0-3-1.8-4.5-10.8-6.8-10.8-2.8-17.8-5.7-17.8-16.4v-.2c0-9.7 7.8-16.2 18.8-16.2 7.8 0 14.5 2.5 19.9 6.8l-6.1 8.9c-4.8-3.3-9.4-5.3-14-5.3-4.5 0-6.9 2.1-6.9 4.7v.2c0 3.5 2.3 4.7 11.6 7.1 10.9 2.8 17 6.7 17 16.1v.2c0 10.7-8.1 16.6-19.7 16.6-8.1 0-16.3-2.8-22.7-8.5zM176.8 46.8l7-8.4c4.8 4 9.9 6.5 16 6.5 4.8 0 7.7-1.9 7.7-5.1v-.2c0-3-1.8-4.5-10.8-6.8-10.8-2.8-17.8-5.7-17.8-16.4v-.2c0-9.7 7.8-16.2 18.8-16.2 7.8 0 14.5 2.5 19.9 6.8l-6.1 8.9c-4.8-3.3-9.4-5.3-14-5.3-4.5 0-6.9 2.1-6.9 4.7v.2c0 3.5 2.3 4.7 11.6 7.1 10.9 2.8 17 6.7 17 16.1v.2c0 10.7-8.1 16.6-19.7 16.6-8.1 0-16.3-2.8-22.7-8.5zM224 27.9v-.2C224 12.5 235.9 0 252.2 0c9.7 0 15.5 2.6 21.1 7.4l-7.4 9c-4.1-3.4-7.8-5.4-14-5.4-8.6 0-15.4 7.6-15.4 16.7v.2c0 9.8 6.7 17 16.3 17 4.3 0 8.1-1.1 11.1-3.2V34H252V23.7h23.3V47c-5.5 4.7-13.1 8.5-22.9 8.5-16.9 0-28.4-11.7-28.4-27.6z" class="st1"/><path d="M322.3 81c-1.8.2-3.7 1.1-5.2 2.5l11 7.8c.6-.5 1.3-.9 2-.9l16-1.4-14.4 53.7c-.2.7-.7 1.4-1.3 2l8.6 10.1c2.1-.2 4.3-2.1 4.8-4.3l19.6-73.1-41.1 3.6z" class="st1"/><path d="m528.3 170.2-6.1-34.6-16.7 37.5-25.6 11.3-436.2 49.1L60 248.2 476.8 191l25.3 5.7 6.1 34.6 16.7-37.5 36.6-16.1z" style="fill:#fac109"/><path d="m518.5 161.1 4.1 14.9 14.2 4.8-16.1 8.5-8.8 16.5-4.1-14.8-14.2-4.8 16.1-8.6z" style="fill:#004537"/></svg>