<svg xmlns="http://www.w3.org/2000/svg" xml:space="preserve" width="327.79825" height="394.00195" viewBox="0 0 327.79825 394.00195"><defs><clipPath id="a" clipPathUnits="userSpaceOnUse"><path d="M0 841.89h595.276V0H0Z"/></clipPath></defs><g clip-path="url(#a)" style="stroke-width:1.32734" transform="matrix(1.00451 0 0 -1.00451 -92.082 628.72)"><g style="stroke-width:1.32734"><path d="M0 0c-13.275-48.824-40.499-51.074-40.499-51.074l9.9 161.321c4.845-1.11 9.825-5.073 13.845-9.105 4.941-4.957 11.73-16.484 14.958-27.275C3.233 57.053 8.085 29.737 0 0m84.577 162.108c-18.554 24.984-73.98 82.899-170.525 48.487-121.197-43.199-128.997-147.296-128.997-147.296s-7.759-69.937 29.699-104.098L-143.847-8.1l-9.599-162.896 107.697 18.3S48.749-136.497 91.648-38.099c35.674 81.826 12.016 158.672 3.036 182.236-1.819 4.773-5.37 11.592-10.107 17.971" style="fill:#0e1132;fill-opacity:1;fill-rule:nonzero;stroke:none;stroke-width:1.32734" transform="translate(307.279 404.66)"/></g><g style="stroke-width:1.32734"><path d="m0 0-15.75-235.794 83.698 13.049S168.971-205.42 191.695-98.548C214.42 8.325 164.246 54.899 164.246 54.899s-40.724 52.648-123.072 37.799S-71.098 5.4-71.098 5.4s-22.95-56.474 8.324-107.548l41.4 33.75S-41.174-16.2-5.4 19.125s78.523 28.124 78.523 28.124 56.474-7.65 65.024-67.049c8.55-59.398-12.375-103.047-12.375-103.047s-19.8-43.424-53.549-50.624l-26.549-4.05 9.9 189.896z" style="fill:#ee2729;fill-opacity:1;fill-rule:nonzero;stroke:none;stroke-width:1.32734" transform="translate(203.556 511.082)"/></g></g></svg>