<svg xmlns="http://www.w3.org/2000/svg" xml:space="preserve" width="114.0765" height="118.31019" viewBox="0 0 114.0765 118.31019"><defs><clipPath id="a" clipPathUnits="userSpaceOnUse"><path d="M0 0h86v89H0Z"/></clipPath></defs><g clip-path="url(#a)" transform="matrix(1.33333 0 0 1.33333 0 0)"><path d="m85.559 24.852-3.957.664-1.782-3.637c-4.351-8.91-7.711-10.422-16.484-8.883l-2.301.402-11.519 26.215 16.843-2.945-3.855 8.762-16.801 2.855-3.168 7.207c-3.734 8.438-8.601 14.446-16.551 18.297l23.961-4.215c9.391-1.629 12.711-4.41 18.41-13.324l1.989-3.09 6.801-1.265-3.168 7.199c-6.336 14.523-11.692 18.797-25.653 21.187L0 88.734l3.996-9.121c11.192-5.957 14.328-9.972 19.559-21.851l17.98-40.93-2.793.488C22.305 20.203 14.07 30.836 13.543 41.715c-.164 3.426.508 7.258 1.957 10.265-7.543-3.671-12.887-9.812-12.559-16.535.567-11.738 12.039-23.437 42.688-28.82L83.57 0Z" style="fill:#fc4e00;fill-opacity:1;fill-rule:nonzero;stroke:none"/></g></svg>