<svg xmlns="http://www.w3.org/2000/svg" xml:space="preserve" width="306.336" height="253.55865" viewBox="0 0 306.33599 253.55866"><path d="m3353.57 3984.25-1010.59-92.97-64.68-133.08-637.22-58.4-251.42-517.35 132.24 12.05-465.85-954.54 646.12 59.2 173.02 354.55 193.43-571.15 611.44 56.17-270.7 799.08" style="fill:#570514;fill-opacity:1;fill-rule:nonzero;stroke:none" transform="matrix(.13333 0 0 -.13333 -140.807 531.233)"/><path d="m2325.42 2979.56 846.51 938.2-780.7-71.79-175.92-362.02 94.16 8.6-259.44-287.52 246.49 505.08-607.18-55.67-175.92-362.03 132.48 12.09-465.81-954.46 473.91 43.44 233.57 478.61 232.37-686.11 460.02 42.26" style="fill:#eb008a;fill-opacity:1;fill-rule:nonzero;stroke:none" transform="matrix(.13333 0 0 -.13333 -140.807 531.233)"/><path d="m3050.86 3857.16-627.42-57.71-125.64-258.48 132.65 12.09-524.57-581.43 248.28-733.01 359.08 32.98-243.77 719.51M1721.54 3607.92l-125.61-258.48 132.66 12.11-465.79-954.44 359.08 32.89 591.96 1213.04" style="fill:#fff;fill-opacity:1;fill-rule:nonzero;stroke:none" transform="matrix(.13333 0 0 -.13333 -140.807 531.233)"/><path d="m1658.74 3478.68-.02-.02-62.78-129.22 132.65 12.11 242.63 145.74" style="fill:#d1d1d1;fill-opacity:1;fill-rule:nonzero;stroke:none" transform="matrix(.13333 0 0 -.13333 -140.807 531.233)"/><path d="m2213.84 3653.04-242.63-145.74-465.8-954.45-242.61-145.74 359.08 32.89M2430.45 3553.06l310.21 152.05-380.03-34.92-62.83-129.22zM2513.25 2271.6l-243.77 719.5 781.39 866.06-310.21-152.05-652.98-723.73 203.91-606.67-137.42-136.1" style="fill:#d1d1d1;fill-opacity:1;fill-rule:nonzero;stroke:none" transform="matrix(.13333 0 0 -.13333 -140.807 531.233)"/></svg>