<svg xmlns="http://www.w3.org/2000/svg" width="252.23096mm" height="198.40437mm" viewBox="0 0 252.23096 198.40437"><g style="stroke-width:.0282607"><path d="M0 0h19.698l-2.942-5.896c-1.745 1.312-4.29 1.743-4.29 1.743l.883-9.059-3.499-2.336-3.71 2.357 1.072 9.137s-2.106-.489-4.274-1.781z" style="fill:#06141f;fill-opacity:1;fill-rule:nonzero;stroke:none;stroke-width:.0282607" transform="matrix(12.48297 0 0 -12.48297 3.188 1.967)"/></g><g style="stroke-width:.0282607"><path d="m0 0 3.539-2.249L6.874-.025l-.892 9.171.202-.034c.104-.017 2.463-.429 4.205-1.661l2.746 5.502H-6.053l2.748-5.458C-1.19 8.722.849 9.205.869 9.208l.218.053Zm3.543-2.626L-.336-.16.722 8.846A16.938 16.938 0 0 1-3.29 7.14l-.147-.087-3.126 6.215h20.206l-3.139-6.294-.152.113C8.943 8.149 6.969 8.629 6.335 8.762l.871-8.941z" style="fill:#d3d2d2;fill-opacity:1;fill-rule:nonzero;stroke:none;stroke-width:.0282607" transform="matrix(12.48297 0 0 -12.48297 81.926 165.624)"/></g><g style="stroke-width:.0282607"><path d="M0 0h-17.119l2.071-3.281s2.001.854 4.618.854l-.549-9.367 2.418-1.271 2.375 1.271-.569 9.388s2.593-.044 4.66-.829z" style="fill:#eb605b;fill-opacity:1;fill-rule:nonzero;stroke:none;stroke-width:.0282607" transform="matrix(12.48297 0 0 -12.48297 233.233 11.5)"/></g><g style="fill:#eb0028;fill-opacity:1;stroke-width:.0282607"><path d="m0 0 2.374 1.272-.568 9.388s2.592-.043 4.659-.829l1.054 1.581C3.882 11.97 0 11.973 0 11.973V2.764l-2.418-1.492Z" style="fill:#eb0028;fill-opacity:1;fill-rule:nonzero;stroke:none;stroke-width:.0282607" transform="matrix(12.48297 0 0 -12.48297 126.378 174.602)"/></g><g style="fill:#eb0028;fill-opacity:1;stroke-width:.0282607"><path d="M0 0s-2.173.099-4.619-.854L-5.63.704c2.734.541 7.499.629 7.499.629z" style="fill:#eb0028;fill-opacity:1;fill-rule:nonzero;stroke:none;stroke-width:.0282607" transform="matrix(12.48297 0 0 -12.48297 103.052 41.782)"/></g><g style="stroke-width:.0282607"><path d="m0 0 2.254-1.185L4.468 0l-.577 9.457.17-.003c.106-.002 2.549-.051 4.595-.795l1.869 2.888H-6.018l1.849-2.928c.483.186 2.275.815 4.556.815h.167zm2.256-1.539L-.325-.183l.544 9.302c-2.472-.037-4.369-.831-4.388-.838l-.125-.053-2.295 3.631h17.692L8.785 8.276l-.121.044c-1.715.655-3.831.79-4.438.814l.567-9.317z" style="fill:#fff;fill-opacity:1;fill-rule:nonzero;stroke:none;stroke-width:.0282607" transform="matrix(12.48297 0 0 -12.48297 98.23 157.59)"/></g></svg>