<svg xmlns="http://www.w3.org/2000/svg" xml:space="preserve" width="133.30701" height="141.588" x="0px" y="0px" viewBox="0 0 133.30701 141.588"><g fill="#FFF"><path d="m78.894 72.835 18.609 9.481v32.189l13.158-6.705V75.535l-18.14-9.382 18.14-9.509V17.772l-13.158 4.879v27.027L60.283 68.64l-.003-45.991-13.161-4.874V107.8l13.164 6.705V82.316z" style="fill:#565658;fill-opacity:1" transform="translate(-12.237 -8.053)"/><path d="m145.544 26.721-22.433-.965v86.602l-39.209 19.967c1.18-14.623 2.484-28.725 2.961-41.548l-16.179-8.243c.306 15.257 1.764 32 3.199 49.791l-39.209-19.967V25.756l-22.437.965c13.979 15.567 14.608 47.964 6.989 92.749 34.619 6.986 59.666 30.171 59.666 30.171s25.045-23.185 59.665-30.171c-7.621-44.785-6.992-77.182 6.987-92.749" style="fill:#565658;fill-opacity:1" transform="translate(-12.237 -8.053)"/><path d="M85.758 44.622c-1.265-12.235-3.444-24.271-6.864-36.569-4.1 14.743-6.42 29.109-7.51 43.892z" style="fill:#565658;fill-opacity:1" transform="translate(-12.237 -8.053)"/></g></svg>