<svg xmlns="http://www.w3.org/2000/svg" xml:space="preserve" width="388.17899" height="358.25229" viewBox="0 0 388.179 358.25229"><defs><clipPath id="a" clipPathUnits="userSpaceOnUse"><path d="M0 355.791h1000V0H0Z"/></clipPath></defs><g clip-path="url(#a)" transform="matrix(1.33333 0 0 -1.33333 0 358.252)"><path d="M0 0c-8.414 10.606-20.442 16.987-34.875 18.458-2.148.225-136.094-.077-136.094-.077-63.793-.204-86.698-47.46-94.658-75.633-6.846-24.153-6.464-41.714-6.716-46.644-.047-.811.155-1.839.687-2.064.729-.326 1.791-.037 3.227 1.322 1.567 1.463 28.078 28.192 31.948 31.695 3.863 3.474 20.75 19.939 50.412 20.008l100.506.3c-.408-2.083-24.749-113.119-24.749-113.119-3.741-14.578-14.459-22.751-33.001-24.163l29.569 134.626c.098.228.054.52-.331.496-.398-.048-22.907-1.548-22.907-1.548-35.609-3.953-68.507-33.386-76.439-68.457l-14.342-65.282c-21.185.022-34.716 3.353-43.249 4.898-2.897.49-5.594 1.137-7.911 1.662-.943.207-1.775-.623-1.327-1.482 2.983-5.859 9.914-21.717 19.692-34.419 13.203-17.191 33.983-27.187 60.777-29.938l67.291-.787c96.685.297 103.716 33.067 111.197 67.76C-20.651-179.37 9.13-45.986 9.13-45.986 13.067-28.743 9.811-12.392 0 0" style="fill:#c7a079;fill-opacity:1;fill-rule:nonzero;stroke:none" transform="translate(280.375 250.148)"/><path d="M0 0c-8.241 10.449-20.72 16.221-35.784 16.147l-129.519-.424c-45.202-.125-72.777-28.531-82.656-52.845-6.175-15.193-8.011-24.678-9.199-31.003 0 0-2.395-14.539-2.65-19.11-.063-.647-.143-.935.223-1.145.204-.117.514-.074 1.018.342 2.655 2.428 9.495 10.125 11.13 11.803 5.515 5.571 15.723 16.147 22.221 20.687 8.077 5.652 24.743 15.151 45.774 15.2l104.578.311c1.87.024 3.023-.445 3.132-.687 1.418-1.783.189-4.797.189-4.797l-25.222-116.393c-4.833-19.057-20.693-29.138-48.779-29.856 0 0 28.745 132.874 28.849 133.408.113.635-.204 1.033-.925.956-.721-.043-12.877-1.299-12.877-1.299-32.318-3.574-62.107-30.234-69.337-61.972l-12.474-56.907-3.384-14.361-3.805-.029c-7.675-.013-17.353.408-36.444 3.728-3.326.579-4.956 1.127-5.383.671-.331-.466-.235-1.089.552-2.785.331-.732 6.442-15.837 21.64-29.612 9.464-8.515 25.237-14.347 45.698-16.444 11.231-1.145 23.252-1.293 34.615-1.245l17.388.042c80.871.268 106.333 8.393 118.901 61.938L7.818-39.831C11.237-24.81 8.465-10.667 0 0" style="fill:#071d3d;fill-opacity:1;fill-rule:nonzero;stroke:none" transform="translate(274.243 244.885)"/><path d="m0 0-129.551-.411c-66.07-.201-80.422-61.11-81.091-63.56-.733-2.438-2.803-12.314-2.954-13.028-.201-.704.056-1.041.702-.357.66.708 9.135 9.747 9.135 9.747.193.255 24.132 25.488 60.787 25.592l104.628.32c3.977.011 6.914-1.057 8.639-3.318 3.434-4.47 1.389-12.376-.686-20.778-.525-2.028-23.143-106.428-23.143-106.428-8.515-34.058-47.142-34.173-59.876-34.204l-3.638-.027s28.185 132.12 28.27 132.703c.101.583-.442.853-1.017.79-.536-.056-4.171-.456-4.171-.456-29.713-3.297-57.096-27.741-63.679-56.879l-17.602-76.306c-7.216.047-15.113.226-21.844.92-4.066.418-16.706 2.599-17.655 2.764-.915.196-1.209-.268-.718-.986.49-.731 4.02-6.215 4.02-6.215 11.605-17.021 30.348-27.163 53.55-28.379 23.172-1.24 40.281-.615 56.945-.867 48.429-.655 94.213-.448 107.532 55.917l30.322 135.97c2.907 12.853.562 24.903-6.538 33.884C23.503-4.892 12.495.047 0 0" style="fill:#1d467d;fill-opacity:1;fill-rule:nonzero;stroke:none" transform="translate(238.078 253.514)"/><path d="m0 0 18.312 79.46c5.88 25.774 29.14 47.693 54.925 52.911.862 4.134 1.182 6.072 1.182 6.072-27.802-3.08-53.94-26.265-60.212-53.75L-4.084 5.245c-13.677.01-27.971 1.213-36.091 2.793 1.476-2.174 3.859-4.927 4.089-5.229C-27.675.418-13.637.042 0 0" style="fill:#fff;fill-opacity:1;fill-rule:nonzero;stroke:none" transform="translate(70.126 37.642)"/><path d="m0 0 129.554.392c10.163.035 18.951-3.416 25.126-9.755a26.152 26.152 0 0 1-2.041 2.934c-6.172 7.799-15.831 12.084-27.158 12.06L-4.113 5.199c-63.604-.175-77.168-60.376-77.168-60.376s3.016 3.233 8.593 7.465C-64.768-29.997-44.813-.135 0 0" style="fill:#fff;fill-opacity:1;fill-rule:nonzero;stroke:none" transform="translate(112.65 243.855)"/><path d="M0 0c13.158.045 54.433.135 63.739 37.276 0 0 22.609 104.397 23.154 106.366 2.377 9.378 4.564 18.273-.029 24.269a11.502 11.502 0 0 1-2.51 2.353c2.354-5.806.443-13.385-1.534-21.389-.557-1.979-23.185-106.392-23.185-106.392C50.349 5.345 9.105 5.245-4.11 5.245l-3.976.058L-9.254.032Z" style="fill:#fff;fill-opacity:1;fill-rule:nonzero;stroke:none" transform="translate(128.802 37.822)"/></g></svg>