<svg xmlns="http://www.w3.org/2000/svg" xml:space="preserve" width="185.06947" height="191.61328" viewBox="0 0 185.06947 191.61328"><defs><clipPath id="b" clipPathUnits="userSpaceOnUse"><path d="M0 595.276h841.89V0H0Z"/></clipPath><clipPath id="a" clipPathUnits="userSpaceOnUse"><path d="M382.616 347.747H251.091V204.035H387.94c.03.117.051.234.088.351.029.094.085.177.127.265.03.06.066.123.098.184a1.507 1.507 0 0 0-.347.72c-.075.003-.15 0-.226.005a8.224 8.224 0 0 0-.79-.02c-.024 0-.017.032-.01.063-.404.015-.277.025.006.03 0 .005.003.01.003.014v.356c0 .416-.002.83.003 1.246.022 1.046-.04 2.095-.019 3.142-.272.062-.235.283-.231.721.305 2.064.316 2.08.523 3.192v.003c-.01.042-.022.083-.033.124-.085.342-.151.687-.247 1.026.064-.136.129-.198.19-.173-.003.12 0 .264.004.403-.217.27-.394.483-.422.555.04-.166.067-.336.115-.485-.045.101-.09.202-.116.31-.073.298-.124.601-.174.904-.094.297-.245.713-.526 1.382-.077.183.04-.334.079-.573.046-.11.03-.067.138-.357.037-.102-.085.2-.128.3 0 .013-.008.042-.01.057-.166.398-.114.218-.434 1.875.004.456-.017.91-.017 1.365.017.422.032.825.061 1.25.002.03-.004.078-.006.119-.108.064-.218.123-.323.193-.412.272.103.983.208 1.465.01.044.03.085.042.129.003.16.007.321.006.482.114.629.286 2.076.858 2.793.043.145.047.145.113.391.134.272.218.575.402.816.08.105.159.222.235.337.006.036.008.024.015.072.091.64.063.642.445 1.566.038.09.092.174.142.259l.006.023a5.957 5.957 0 0 0-.048-.082c-.286-.067-.029-.012.157.799.035.152.075.302.111.454a.079.079 0 0 1 .057-.04c.46-.077.923-.129 1.386-.177.045.293.077.54.132.898.01.38.031.757.075 1.134a39.677 39.677 0 0 1-1.635-1.718c-.007-.008.002-.022 0-.033a3.155 3.155 0 0 1-.012-.05c-.009.018.011.056.012.083.004.128.087.315.158.423.46.703 1.034 1.323 1.551 1.985l.028.013-.01-.047c-.042-.218-.065-.437-.091-.656.06.06.091.088.13.126-.005.197.005.394.007.592l-.035-.015c.03.152.06.27.08.376l.052.371v1.534c-1.427-.162-.532.447 0 .079V239.173c-.002.033-.002.083-.003.116-.07-.072-.148-.128-.218-.125-.158.008-.357.042-.441.176-.078.125.039.293.059.44-.031-.09-.055-.182-.093-.269-.003-.007-.017.008-.019.016-.048.291-.095.582-.127.875-.068.62-.06 1.25-.04 1.874l.02.174a.728.728 0 0 0 .153-.031c.154.038.4-.001.55.066-.09.1-.502-.052-.692.02l-.01.434c.003.383.002.766 0 1.148 0 .139-.008.146.056.317.019.048.06.086.078.135.01.025.002.054.006.08.012.072.063.257.078.315l.022.075c0 .016-.002.02-.002.03 0 .001.005 0 .007-.002.003.08.004.159.011.237.013.131.057.26.093.384.066.162.096.336.13.507-.105-.014-.208-.03-.316-.036-1.294.025-3.987-.076-4.982.785-2.356 2.035-3.51 5.349-6.11 7.062-1.621 1.068 2.242-3.209 2.984-5.003 1.064-2.574-10.086 14.067-3.428 7.623.12 1.885.034 1.532.37 3.284.025.126-.008.355.058.431-.171 1.62.2 3.094 1.03 4.808.04.273.048.372.125.857.02.122.062.388.09.394-.024.443-.063 1.09-.02.67.006 2.692.198 5.39.795 8.02-.174 2.928-.02 5.718.786 8.59-.074-.393-.197-.78-.196-1.18 0-.15.21.245.215.395.01.265-.009.53-.017.796l.003.006c-.024.7-.075 1.399-.078 2.099-.011 2.845-.044 4.303.32 6.87.183 1.277.419 2.545.628 3.817.062.195.065.42.186.585.039.053.162-.168.17-.103.066.547-.013 1.102.016 1.653.064 1.191.074 2.708.488 3.91v12.9c-.11.435-.21.871-.274 1.314a53.433 53.433 0 0 0-.451 4.414c-.142 2.39.148 4.799.411 7.169.07 2.197-.159 4.4-.095 6.594.083 2.838.183 3.647.407 5.955 0 .606.003 1.212 0 1.818-.005.66-.013 1.825-.007 2.433.002.232.01.463.02.694.006.154-.022.525.005.582l-.006.189c-.06.306-.104.579-.013.574-.007.205-.004.41-.01.615zm6.663-102.712-.002-.009.003.01h-.001zm-.002-.009a.146.146 0 0 0-.005-.019c0-.028 0-.068.002-.051.002.023.002.047.003.07zm.457-2.543c.015-.017.022-.042.016-.076a.126.126 0 0 0-.018-.045l.01.003-.014-.115v-.02c.027.037.046.079.026.136l-.002.128-.019-.01zm-.002-.121a1.057 1.057 0 0 1-.176-.047c.08-.012.144-.004.176.047zm-.176-.047c-.11.016-.248.068-.372.102-.076-.018-.13-.055-.14-.133-.02-.18.271-.05.512.03zm-8.594 26.63c-.084-.29-.169-.58-.308-1.032l.184.309c.015.222.073.475.124.722zm8.784-25.924v-.062l.003-.137c0 .055 0 .1-.002.168v.03zm-.313-3.185a.18.18 0 0 1-.085-.088c-.016-.032.06.043.077.074l.007.014zm.432-.16c0-.117-.016-.233-.02-.35.002.08.032.168.036.248v.047a.145.145 0 0 1-.016.054zm-3.522-12.525c-.289-.489-.395-1.534-.548-2.097a3.096 3.096 0 0 1-.083-.457c.03.073.06.146.086.22.095.27.187.542.282.813.023.155.06.358.069.463.049.57.09.717.194 1.058zm.024-.687-.062-.08c-.013-.06-.02-.121-.03-.183l.092.263zm.419-10.745c.033-.076.068-.15.09-.23l.006-.026c-.032.07-.064.16-.096.256zm1.525-4.979c-.008-.245-.013-.49-.014-.735.027.18.05.361.082.54-.025.064-.044.13-.068.195zm.293-1.318a2.535 2.535 0 0 1-.197-.3c.062.03.127.06.197.089zm-.47-3.87c.05-.229.09-.459.131-.689.094.174.191.35.273.53-.094.053-.187.105-.282.156-.04-.001-.08.003-.121.003z" style="fill:red;fill-opacity:1;fill-rule:nonzero;stroke:none;stroke-width:13.3182"/></clipPath></defs><g clip-path="url(#a)" transform="matrix(1.33333 0 0 -1.33333 -334.788 463.66)"><g clip-path="url(#b)"><path d="m314.278 291.082 4.776-9.349s8.822 3.17 11.928 4.284l-14.022-55.003c-.475-2.114-2.332-5.653-5.371-6.476l-2.466-.656-4.975-19.847 7.246 2.071c28.059 7.998 68.363 17.258 68.731 17.341l2.478.569 6.373 21.232-7.643 1.383-.466-.409c-3.137-2.758-8.638-6.879-11.048-7.404l-21.659-5.001c2.196 8.292 21.891 82.609 21.891 82.609z" style="fill:#a1a1a4;fill-opacity:1;fill-rule:nonzero;stroke:none"/><path d="M291.71 269.816c.32-.986.569-1.91.686-2.754.171-1.182.255-2.329.255-3.416 0-3.436-.828-6.187-2.465-8.172-1.606-1.951-3.98-3.057-6.864-3.203-3.189-.168-5.916.783-8.112 2.832v.001c-1.576 1.47-2.763 3.47-3.4 5.585 3.708 1.702 15.878 7.279 19.9 9.127m5.134 77.181c-18.698-3.409-29.863-14.713-29.863-30.233 0-1.365.09-2.778.273-4.2 1.25-9.921 7.696-18.11 13.932-26.032 1.867-2.369 3.635-4.682 5.256-6.968-2.822-1.081-35.351-13.523-35.351-13.523l.459-3.414c.982-7.302 4.964-14.015 10.925-18.414 5.04-3.714 14.014-7.644 28.147-5.27 19.631 3.298 34.322 20.558 32.751 38.468-.988 11.193-7.412 18.882-13.624 26.32-5.916 7.079-11.499 13.765-10.889 22.705.291 4.307 2.112 6.847 4.995 6.972 1.235.055 2.135-.398 2.922-1.477.945-1.296 1.468-3.256 1.468-5.116 0-.957-.141-1.885-.431-2.679l-.543-1.457 3.366-5.297 22.782 9.576-.582 3.411c-.768 4.408-3.661 8.559-8.154 11.693-7.226 5.051-17.372 6.85-27.839 4.935" style="fill:#a1a1a4;fill-opacity:1;fill-rule:nonzero;stroke:none"/><path d="M381.942 243.03c-2.829-2.363-8.348-6.588-11.458-7.262-.014 0-22.828-5.283-22.828-5.283-1.338-.282-2.338-.212-2.718.203-.429.452-.434 1.603 0 3.155 0 .012 20.406 77.013 20.406 77.013l-46.799-21.272 2.042-3.983s11.625 4.175 14.877 5.345l-15.469-60.658c-.769-3.459-3.466-7.651-7.596-8.766l-.698-.186-3.206-12.806 2.039.574c27.939 7.964 68.495 17.299 68.904 17.39l.692.159 4.761 15.858z" style="fill:#fff;fill-opacity:1;fill-rule:nonzero;stroke:none"/><path d="m383.073 240.722-3.914-13.034s-40.673-9.332-68.96-17.403l2.523 10.056c4.781 1.292 7.665 6.062 8.466 9.646l16.037 62.898-16.037-5.765-.965 1.878 43.27 19.672-19.741-74.503c-.887-3.208-.393-5.846 4.182-4.874l22.812 5.269c3.093.679 7.85 4.197 10.673 6.461z" style="fill:#0066b3;fill-opacity:1;fill-rule:nonzero;stroke:none"/><path d="m311.93 321.313 17.995 7.558-.168.967c-.622 3.577-3.055 7.009-6.852 9.667-6.555 4.577-15.847 6.185-25.496 4.424-18.956-3.461-29.07-15.041-27.062-30.97 1.143-9.052 7.317-16.905 13.293-24.493 5.574-7.084 10.837-13.774 11.851-20.967.829-5.871-.172-10.714-2.894-14.014-2.18-2.643-5.33-4.144-9.118-4.335-4.008-.206-7.603 1.057-10.396 3.669-3.23 3.011-4.603 6.906-4.856 9.664 1.441.662 23.935 10.976 23.935 10.976l-2.269 4.081-35.375-13.529.13-.964c.868-6.472 4.392-12.418 9.68-16.318 6.526-4.815 15.443-6.44 25.776-4.705 15.753 2.643 31.761 16.828 30.154 35.114-.896 10.216-6.995 17.521-12.904 24.596-6.328 7.565-12.297 14.714-11.608 24.914.408 5.897 3.456 9.686 7.971 9.879 2.857.134 4.608-1.431 5.582-2.759 2.046-2.797 2.668-7.405 1.443-10.706z" style="fill:#fff;fill-opacity:1;fill-rule:nonzero;stroke:none"/><path d="m313.034 323.106 15.512 6.528c-1.468 8.477-14.378 16.105-30.919 13.084-19.021-3.472-27.885-15.128-26.064-29.611 2.14-16.941 22.952-29.952 25.146-45.443 1.762-12.469-4.606-19.303-13.165-19.741-11.033-.563-16.484 9.114-16.606 15.323l23.505 10.775-1.103 1.995-33.477-12.811c1.525-11.35 12.14-23.648 34.039-19.973 16.288 2.744 30.597 17.126 29.135 33.803-1.808 20.589-25.906 29.251-24.517 49.697.482 7.003 4.304 10.81 9.141 11.023 6.932.309 9.844-7.674 8.692-13.486z" style="fill:#0066b3;fill-opacity:1;fill-rule:nonzero;stroke:none"/><path d="m595.583 228.734 4.323 1.818c-.408 2.362-4.006 4.488-8.614 3.645-5.3-.966-7.768-4.215-7.26-8.25.597-4.718 6.394-8.343 7.006-12.659.489-3.473-1.284-5.377-3.67-5.501-3.074-.156-4.592 2.541-4.626 4.27l6.549 3.003-.309.554-9.326-3.568c.426-3.161 3.384-6.588 9.485-5.565 4.538.765 8.523 4.771 8.116 9.417-.503 5.738-7.218 8.151-6.829 13.847.133 1.95 1.199 3.011 2.546 3.07 1.931.086 2.742-2.137 2.422-3.756z" style="fill:#fff;fill-opacity:1;fill-rule:nonzero;stroke:none"/></g></g></svg>