<svg xmlns="http://www.w3.org/2000/svg" width="146.47224mm" height="167.18135mm" viewBox="0 0 146.47224 167.18135"><g style="stroke-width:.219464"><g style="stroke-width:.219464"><path d="m0 0-4.045 22.877-10.879-24.494-27.22-2.382 18.133 67.673-27.044-2.366 5.704-4.786-23.883-89.132 52.968 9.214 2.994-16.934 11 24.764L21.886-4.895z" style="fill:#ef3d42;fill-opacity:1;fill-rule:nonzero;stroke:none;stroke-width:.219464" transform="matrix(1.60745 0 0 -1.60745 111.292 102.353)"/></g><g style="stroke-width:.219464"><path d="m0 0-.989 5.592L-40.726.231l21.334 79.618-15.397 4.855 5.704-4.786-23.884-89.133z" style="fill:#ce152c;fill-opacity:1;fill-rule:nonzero;stroke:none;stroke-width:.219464" transform="matrix(1.60745 0 0 -1.60745 85.145 139.96)"/></g><g style="stroke-width:.219464"><path d="m0 0-2.749 15.549-7.476-16.832-6.899-3.047-29.339-2.959 6.992-6.176 21.582 2.971 6.119-1.369 2.749-15.549 7.476 16.832 16.42 7.253z" style="fill:#fdbb31;fill-opacity:1;fill-rule:nonzero;stroke:none;stroke-width:.219464" transform="matrix(1.60745 0 0 -1.60745 106.834 106.846)"/></g><g style="stroke-width:.219464"><path d="m0 0 1.869-6.676L8.235-8.82.994-12.67l-3.924-7.403-1.869 6.676-6.366 2.144 7.241 3.85z" style="fill:#00483a;fill-opacity:1;fill-rule:nonzero;stroke:none;stroke-width:.219464" transform="matrix(1.60745 0 0 -1.60745 99.729 100.247)"/></g></g></svg>